%TF.GenerationSoftware,KiCad,Pcbnew,9.0.3*%
%TF.CreationDate,2025-08-08T09:14:45+05:30*%
%TF.ProjectId,US-UART(Converter),55532d55-4152-4542-9843-6f6e76657274,rev?*%
%TF.SameCoordinates,Original*%
%TF.FileFunction,Legend,Bot*%
%TF.FilePolarity,Positive*%
%FSLAX46Y46*%
G04 Gerber Fmt 4.6, Leading zero omitted, Abs format (unit mm)*
G04 Created by KiCad (PCBNEW 9.0.3) date 2025-08-08 09:14:45*
%MOMM*%
%LPD*%
G01*
G04 APERTURE LIST*
%ADD10C,0.250000*%
%ADD11C,3.800000*%
%ADD12C,1.500000*%
%ADD13R,1.700000X1.700000*%
%ADD14C,1.700000*%
%ADD15C,1.100000*%
%ADD16R,2.030000X1.730000*%
%ADD17O,2.030000X1.730000*%
%ADD18O,3.200000X1.300000*%
G04 APERTURE END LIST*
D10*
X123926377Y-78412238D02*
X123831139Y-78364619D01*
X123831139Y-78364619D02*
X123688282Y-78364619D01*
X123688282Y-78364619D02*
X123545425Y-78412238D01*
X123545425Y-78412238D02*
X123450187Y-78507476D01*
X123450187Y-78507476D02*
X123402568Y-78602714D01*
X123402568Y-78602714D02*
X123354949Y-78793190D01*
X123354949Y-78793190D02*
X123354949Y-78936047D01*
X123354949Y-78936047D02*
X123402568Y-79126523D01*
X123402568Y-79126523D02*
X123450187Y-79221761D01*
X123450187Y-79221761D02*
X123545425Y-79317000D01*
X123545425Y-79317000D02*
X123688282Y-79364619D01*
X123688282Y-79364619D02*
X123783520Y-79364619D01*
X123783520Y-79364619D02*
X123926377Y-79317000D01*
X123926377Y-79317000D02*
X123973996Y-79269380D01*
X123973996Y-79269380D02*
X123973996Y-78936047D01*
X123973996Y-78936047D02*
X123783520Y-78936047D01*
X124402568Y-79364619D02*
X124402568Y-78364619D01*
X124402568Y-78364619D02*
X124973996Y-79364619D01*
X124973996Y-79364619D02*
X124973996Y-78364619D01*
X125450187Y-79364619D02*
X125450187Y-78364619D01*
X125450187Y-78364619D02*
X125688282Y-78364619D01*
X125688282Y-78364619D02*
X125831139Y-78412238D01*
X125831139Y-78412238D02*
X125926377Y-78507476D01*
X125926377Y-78507476D02*
X125973996Y-78602714D01*
X125973996Y-78602714D02*
X126021615Y-78793190D01*
X126021615Y-78793190D02*
X126021615Y-78936047D01*
X126021615Y-78936047D02*
X125973996Y-79126523D01*
X125973996Y-79126523D02*
X125926377Y-79221761D01*
X125926377Y-79221761D02*
X125831139Y-79317000D01*
X125831139Y-79317000D02*
X125688282Y-79364619D01*
X125688282Y-79364619D02*
X125450187Y-79364619D01*
X123973996Y-76864619D02*
X123640663Y-76388428D01*
X123402568Y-76864619D02*
X123402568Y-75864619D01*
X123402568Y-75864619D02*
X123783520Y-75864619D01*
X123783520Y-75864619D02*
X123878758Y-75912238D01*
X123878758Y-75912238D02*
X123926377Y-75959857D01*
X123926377Y-75959857D02*
X123973996Y-76055095D01*
X123973996Y-76055095D02*
X123973996Y-76197952D01*
X123973996Y-76197952D02*
X123926377Y-76293190D01*
X123926377Y-76293190D02*
X123878758Y-76340809D01*
X123878758Y-76340809D02*
X123783520Y-76388428D01*
X123783520Y-76388428D02*
X123402568Y-76388428D01*
X124307330Y-75864619D02*
X124973996Y-76864619D01*
X124973996Y-75864619D02*
X124307330Y-76864619D01*
X123259711Y-73364619D02*
X123831139Y-73364619D01*
X123545425Y-74364619D02*
X123545425Y-73364619D01*
X124069235Y-73364619D02*
X124735901Y-74364619D01*
X124735901Y-73364619D02*
X124069235Y-74364619D01*
X123307330Y-70864619D02*
X123926377Y-70864619D01*
X123926377Y-70864619D02*
X123593044Y-71245571D01*
X123593044Y-71245571D02*
X123735901Y-71245571D01*
X123735901Y-71245571D02*
X123831139Y-71293190D01*
X123831139Y-71293190D02*
X123878758Y-71340809D01*
X123878758Y-71340809D02*
X123926377Y-71436047D01*
X123926377Y-71436047D02*
X123926377Y-71674142D01*
X123926377Y-71674142D02*
X123878758Y-71769380D01*
X123878758Y-71769380D02*
X123831139Y-71817000D01*
X123831139Y-71817000D02*
X123735901Y-71864619D01*
X123735901Y-71864619D02*
X123450187Y-71864619D01*
X123450187Y-71864619D02*
X123354949Y-71817000D01*
X123354949Y-71817000D02*
X123307330Y-71769380D01*
X124212092Y-70864619D02*
X124545425Y-71864619D01*
X124545425Y-71864619D02*
X124878758Y-70864619D01*
X125116854Y-70864619D02*
X125735901Y-70864619D01*
X125735901Y-70864619D02*
X125402568Y-71245571D01*
X125402568Y-71245571D02*
X125545425Y-71245571D01*
X125545425Y-71245571D02*
X125640663Y-71293190D01*
X125640663Y-71293190D02*
X125688282Y-71340809D01*
X125688282Y-71340809D02*
X125735901Y-71436047D01*
X125735901Y-71436047D02*
X125735901Y-71674142D01*
X125735901Y-71674142D02*
X125688282Y-71769380D01*
X125688282Y-71769380D02*
X125640663Y-71817000D01*
X125640663Y-71817000D02*
X125545425Y-71864619D01*
X125545425Y-71864619D02*
X125259711Y-71864619D01*
X125259711Y-71864619D02*
X125164473Y-71817000D01*
X125164473Y-71817000D02*
X125116854Y-71769380D01*
%LPC*%
D11*
X97000000Y-65500000D03*
X97000000Y-84000000D03*
X129500000Y-84000000D03*
D12*
X107500000Y-78250000D03*
X107500000Y-83150000D03*
D13*
X105500000Y-66500000D03*
D14*
X108040000Y-66500000D03*
D11*
X129500000Y-65500000D03*
D15*
X129660000Y-76500000D03*
D16*
X127500000Y-71420000D03*
D17*
X127500000Y-73960000D03*
X127500000Y-76500000D03*
X127500000Y-79040000D03*
D15*
X98400000Y-77175000D03*
X98400000Y-72675000D03*
D18*
X98400000Y-80775000D03*
X98400000Y-69075000D03*
%LPD*%
M02*
