%TF.GenerationSoftware,KiCad,Pcbnew,9.0.3*%
%TF.CreationDate,2025-08-08T09:14:45+05:30*%
%TF.ProjectId,US-UART(Converter),55532d55-4152-4542-9843-6f6e76657274,rev?*%
%TF.SameCoordinates,Original*%
%TF.FileFunction,Legend,Top*%
%TF.FilePolarity,Positive*%
%FSLAX46Y46*%
G04 Gerber Fmt 4.6, Leading zero omitted, Abs format (unit mm)*
G04 Created by KiCad (PCBNEW 9.0.3) date 2025-08-08 09:14:45*
%MOMM*%
%LPD*%
G01*
G04 APERTURE LIST*
G04 Aperture macros list*
%AMRoundRect*
0 Rectangle with rounded corners*
0 $1 Rounding radius*
0 $2 $3 $4 $5 $6 $7 $8 $9 X,Y pos of 4 corners*
0 Add a 4 corners polygon primitive as box body*
4,1,4,$2,$3,$4,$5,$6,$7,$8,$9,$2,$3,0*
0 Add four circle primitives for the rounded corners*
1,1,$1+$1,$2,$3*
1,1,$1+$1,$4,$5*
1,1,$1+$1,$6,$7*
1,1,$1+$1,$8,$9*
0 Add four rect primitives between the rounded corners*
20,1,$1+$1,$2,$3,$4,$5,0*
20,1,$1+$1,$4,$5,$6,$7,0*
20,1,$1+$1,$6,$7,$8,$9,0*
20,1,$1+$1,$8,$9,$2,$3,0*%
G04 Aperture macros list end*
%ADD10C,0.175000*%
%ADD11C,0.150000*%
%ADD12C,0.120000*%
%ADD13C,0.225000*%
%ADD14C,3.800000*%
%ADD15C,1.500000*%
%ADD16R,1.700000X1.700000*%
%ADD17C,1.700000*%
%ADD18RoundRect,0.150000X-0.825000X-0.150000X0.825000X-0.150000X0.825000X0.150000X-0.825000X0.150000X0*%
%ADD19C,1.100000*%
%ADD20R,2.030000X1.730000*%
%ADD21O,2.030000X1.730000*%
%ADD22RoundRect,0.300000X0.700000X0.300000X-0.700000X0.300000X-0.700000X-0.300000X0.700000X-0.300000X0*%
%ADD23O,3.200000X1.300000*%
%ADD24RoundRect,0.100000X0.217500X0.100000X-0.217500X0.100000X-0.217500X-0.100000X0.217500X-0.100000X0*%
%ADD25RoundRect,0.100000X-0.217500X-0.100000X0.217500X-0.100000X0.217500X0.100000X-0.217500X0.100000X0*%
G04 APERTURE END LIST*
D10*
X112781797Y-83705233D02*
X112781797Y-84271900D01*
X112781797Y-84271900D02*
X112815131Y-84338566D01*
X112815131Y-84338566D02*
X112848464Y-84371900D01*
X112848464Y-84371900D02*
X112915131Y-84405233D01*
X112915131Y-84405233D02*
X113048464Y-84405233D01*
X113048464Y-84405233D02*
X113115131Y-84371900D01*
X113115131Y-84371900D02*
X113148464Y-84338566D01*
X113148464Y-84338566D02*
X113181797Y-84271900D01*
X113181797Y-84271900D02*
X113181797Y-83705233D01*
X113481797Y-84371900D02*
X113581797Y-84405233D01*
X113581797Y-84405233D02*
X113748464Y-84405233D01*
X113748464Y-84405233D02*
X113815130Y-84371900D01*
X113815130Y-84371900D02*
X113848464Y-84338566D01*
X113848464Y-84338566D02*
X113881797Y-84271900D01*
X113881797Y-84271900D02*
X113881797Y-84205233D01*
X113881797Y-84205233D02*
X113848464Y-84138566D01*
X113848464Y-84138566D02*
X113815130Y-84105233D01*
X113815130Y-84105233D02*
X113748464Y-84071900D01*
X113748464Y-84071900D02*
X113615130Y-84038566D01*
X113615130Y-84038566D02*
X113548464Y-84005233D01*
X113548464Y-84005233D02*
X113515130Y-83971900D01*
X113515130Y-83971900D02*
X113481797Y-83905233D01*
X113481797Y-83905233D02*
X113481797Y-83838566D01*
X113481797Y-83838566D02*
X113515130Y-83771900D01*
X113515130Y-83771900D02*
X113548464Y-83738566D01*
X113548464Y-83738566D02*
X113615130Y-83705233D01*
X113615130Y-83705233D02*
X113781797Y-83705233D01*
X113781797Y-83705233D02*
X113881797Y-83738566D01*
X114415131Y-84038566D02*
X114515131Y-84071900D01*
X114515131Y-84071900D02*
X114548464Y-84105233D01*
X114548464Y-84105233D02*
X114581797Y-84171900D01*
X114581797Y-84171900D02*
X114581797Y-84271900D01*
X114581797Y-84271900D02*
X114548464Y-84338566D01*
X114548464Y-84338566D02*
X114515131Y-84371900D01*
X114515131Y-84371900D02*
X114448464Y-84405233D01*
X114448464Y-84405233D02*
X114181797Y-84405233D01*
X114181797Y-84405233D02*
X114181797Y-83705233D01*
X114181797Y-83705233D02*
X114415131Y-83705233D01*
X114415131Y-83705233D02*
X114481797Y-83738566D01*
X114481797Y-83738566D02*
X114515131Y-83771900D01*
X114515131Y-83771900D02*
X114548464Y-83838566D01*
X114548464Y-83838566D02*
X114548464Y-83905233D01*
X114548464Y-83905233D02*
X114515131Y-83971900D01*
X114515131Y-83971900D02*
X114481797Y-84005233D01*
X114481797Y-84005233D02*
X114415131Y-84038566D01*
X114415131Y-84038566D02*
X114181797Y-84038566D01*
X114881797Y-84138566D02*
X115415131Y-84138566D01*
X115748464Y-83705233D02*
X115748464Y-84271900D01*
X115748464Y-84271900D02*
X115781798Y-84338566D01*
X115781798Y-84338566D02*
X115815131Y-84371900D01*
X115815131Y-84371900D02*
X115881798Y-84405233D01*
X115881798Y-84405233D02*
X116015131Y-84405233D01*
X116015131Y-84405233D02*
X116081798Y-84371900D01*
X116081798Y-84371900D02*
X116115131Y-84338566D01*
X116115131Y-84338566D02*
X116148464Y-84271900D01*
X116148464Y-84271900D02*
X116148464Y-83705233D01*
X116448464Y-84205233D02*
X116781797Y-84205233D01*
X116381797Y-84405233D02*
X116615131Y-83705233D01*
X116615131Y-83705233D02*
X116848464Y-84405233D01*
X117481797Y-84405233D02*
X117248464Y-84071900D01*
X117081797Y-84405233D02*
X117081797Y-83705233D01*
X117081797Y-83705233D02*
X117348464Y-83705233D01*
X117348464Y-83705233D02*
X117415131Y-83738566D01*
X117415131Y-83738566D02*
X117448464Y-83771900D01*
X117448464Y-83771900D02*
X117481797Y-83838566D01*
X117481797Y-83838566D02*
X117481797Y-83938566D01*
X117481797Y-83938566D02*
X117448464Y-84005233D01*
X117448464Y-84005233D02*
X117415131Y-84038566D01*
X117415131Y-84038566D02*
X117348464Y-84071900D01*
X117348464Y-84071900D02*
X117081797Y-84071900D01*
X117681797Y-83705233D02*
X118081797Y-83705233D01*
X117881797Y-84405233D02*
X117881797Y-83705233D01*
X119248463Y-84338566D02*
X119215130Y-84371900D01*
X119215130Y-84371900D02*
X119115130Y-84405233D01*
X119115130Y-84405233D02*
X119048463Y-84405233D01*
X119048463Y-84405233D02*
X118948463Y-84371900D01*
X118948463Y-84371900D02*
X118881797Y-84305233D01*
X118881797Y-84305233D02*
X118848463Y-84238566D01*
X118848463Y-84238566D02*
X118815130Y-84105233D01*
X118815130Y-84105233D02*
X118815130Y-84005233D01*
X118815130Y-84005233D02*
X118848463Y-83871900D01*
X118848463Y-83871900D02*
X118881797Y-83805233D01*
X118881797Y-83805233D02*
X118948463Y-83738566D01*
X118948463Y-83738566D02*
X119048463Y-83705233D01*
X119048463Y-83705233D02*
X119115130Y-83705233D01*
X119115130Y-83705233D02*
X119215130Y-83738566D01*
X119215130Y-83738566D02*
X119248463Y-83771900D01*
X119648463Y-84405233D02*
X119581797Y-84371900D01*
X119581797Y-84371900D02*
X119548463Y-84338566D01*
X119548463Y-84338566D02*
X119515130Y-84271900D01*
X119515130Y-84271900D02*
X119515130Y-84071900D01*
X119515130Y-84071900D02*
X119548463Y-84005233D01*
X119548463Y-84005233D02*
X119581797Y-83971900D01*
X119581797Y-83971900D02*
X119648463Y-83938566D01*
X119648463Y-83938566D02*
X119748463Y-83938566D01*
X119748463Y-83938566D02*
X119815130Y-83971900D01*
X119815130Y-83971900D02*
X119848463Y-84005233D01*
X119848463Y-84005233D02*
X119881797Y-84071900D01*
X119881797Y-84071900D02*
X119881797Y-84271900D01*
X119881797Y-84271900D02*
X119848463Y-84338566D01*
X119848463Y-84338566D02*
X119815130Y-84371900D01*
X119815130Y-84371900D02*
X119748463Y-84405233D01*
X119748463Y-84405233D02*
X119648463Y-84405233D01*
X120181796Y-83938566D02*
X120181796Y-84405233D01*
X120181796Y-84005233D02*
X120215130Y-83971900D01*
X120215130Y-83971900D02*
X120281796Y-83938566D01*
X120281796Y-83938566D02*
X120381796Y-83938566D01*
X120381796Y-83938566D02*
X120448463Y-83971900D01*
X120448463Y-83971900D02*
X120481796Y-84038566D01*
X120481796Y-84038566D02*
X120481796Y-84405233D01*
X120748463Y-83938566D02*
X120915129Y-84405233D01*
X120915129Y-84405233D02*
X121081796Y-83938566D01*
X121615129Y-84371900D02*
X121548462Y-84405233D01*
X121548462Y-84405233D02*
X121415129Y-84405233D01*
X121415129Y-84405233D02*
X121348462Y-84371900D01*
X121348462Y-84371900D02*
X121315129Y-84305233D01*
X121315129Y-84305233D02*
X121315129Y-84038566D01*
X121315129Y-84038566D02*
X121348462Y-83971900D01*
X121348462Y-83971900D02*
X121415129Y-83938566D01*
X121415129Y-83938566D02*
X121548462Y-83938566D01*
X121548462Y-83938566D02*
X121615129Y-83971900D01*
X121615129Y-83971900D02*
X121648462Y-84038566D01*
X121648462Y-84038566D02*
X121648462Y-84105233D01*
X121648462Y-84105233D02*
X121315129Y-84171900D01*
X121948462Y-84405233D02*
X121948462Y-83938566D01*
X121948462Y-84071900D02*
X121981796Y-84005233D01*
X121981796Y-84005233D02*
X122015129Y-83971900D01*
X122015129Y-83971900D02*
X122081796Y-83938566D01*
X122081796Y-83938566D02*
X122148462Y-83938566D01*
X122281795Y-83938566D02*
X122548462Y-83938566D01*
X122381795Y-83705233D02*
X122381795Y-84305233D01*
X122381795Y-84305233D02*
X122415129Y-84371900D01*
X122415129Y-84371900D02*
X122481795Y-84405233D01*
X122481795Y-84405233D02*
X122548462Y-84405233D01*
X123048462Y-84371900D02*
X122981795Y-84405233D01*
X122981795Y-84405233D02*
X122848462Y-84405233D01*
X122848462Y-84405233D02*
X122781795Y-84371900D01*
X122781795Y-84371900D02*
X122748462Y-84305233D01*
X122748462Y-84305233D02*
X122748462Y-84038566D01*
X122748462Y-84038566D02*
X122781795Y-83971900D01*
X122781795Y-83971900D02*
X122848462Y-83938566D01*
X122848462Y-83938566D02*
X122981795Y-83938566D01*
X122981795Y-83938566D02*
X123048462Y-83971900D01*
X123048462Y-83971900D02*
X123081795Y-84038566D01*
X123081795Y-84038566D02*
X123081795Y-84105233D01*
X123081795Y-84105233D02*
X122748462Y-84171900D01*
X123381795Y-84405233D02*
X123381795Y-83938566D01*
X123381795Y-84071900D02*
X123415129Y-84005233D01*
X123415129Y-84005233D02*
X123448462Y-83971900D01*
X123448462Y-83971900D02*
X123515129Y-83938566D01*
X123515129Y-83938566D02*
X123581795Y-83938566D01*
X124248461Y-83705233D02*
X124481795Y-84405233D01*
X124481795Y-84405233D02*
X124715128Y-83705233D01*
X125315128Y-84405233D02*
X124915128Y-84405233D01*
X125115128Y-84405233D02*
X125115128Y-83705233D01*
X125115128Y-83705233D02*
X125048461Y-83805233D01*
X125048461Y-83805233D02*
X124981795Y-83871900D01*
X124981795Y-83871900D02*
X124915128Y-83905233D01*
X125615128Y-84338566D02*
X125648462Y-84371900D01*
X125648462Y-84371900D02*
X125615128Y-84405233D01*
X125615128Y-84405233D02*
X125581795Y-84371900D01*
X125581795Y-84371900D02*
X125615128Y-84338566D01*
X125615128Y-84338566D02*
X125615128Y-84405233D01*
X126315128Y-84405233D02*
X125915128Y-84405233D01*
X126115128Y-84405233D02*
X126115128Y-83705233D01*
X126115128Y-83705233D02*
X126048461Y-83805233D01*
X126048461Y-83805233D02*
X125981795Y-83871900D01*
X125981795Y-83871900D02*
X125915128Y-83905233D01*
D11*
X96238095Y-60504819D02*
X96238095Y-59504819D01*
X96238095Y-59981009D02*
X96809523Y-59981009D01*
X96809523Y-60504819D02*
X96809523Y-59504819D01*
X97809523Y-60504819D02*
X97238095Y-60504819D01*
X97523809Y-60504819D02*
X97523809Y-59504819D01*
X97523809Y-59504819D02*
X97428571Y-59647676D01*
X97428571Y-59647676D02*
X97333333Y-59742914D01*
X97333333Y-59742914D02*
X97238095Y-59790533D01*
X96238095Y-81604819D02*
X96238095Y-80604819D01*
X96238095Y-81081009D02*
X96809523Y-81081009D01*
X96809523Y-81604819D02*
X96809523Y-80604819D01*
X97714285Y-80938152D02*
X97714285Y-81604819D01*
X97476190Y-80557200D02*
X97238095Y-81271485D01*
X97238095Y-81271485D02*
X97857142Y-81271485D01*
X128738095Y-81604819D02*
X128738095Y-80604819D01*
X128738095Y-81081009D02*
X129309523Y-81081009D01*
X129309523Y-81604819D02*
X129309523Y-80604819D01*
X129690476Y-80604819D02*
X130309523Y-80604819D01*
X130309523Y-80604819D02*
X129976190Y-80985771D01*
X129976190Y-80985771D02*
X130119047Y-80985771D01*
X130119047Y-80985771D02*
X130214285Y-81033390D01*
X130214285Y-81033390D02*
X130261904Y-81081009D01*
X130261904Y-81081009D02*
X130309523Y-81176247D01*
X130309523Y-81176247D02*
X130309523Y-81414342D01*
X130309523Y-81414342D02*
X130261904Y-81509580D01*
X130261904Y-81509580D02*
X130214285Y-81557200D01*
X130214285Y-81557200D02*
X130119047Y-81604819D01*
X130119047Y-81604819D02*
X129833333Y-81604819D01*
X129833333Y-81604819D02*
X129738095Y-81557200D01*
X129738095Y-81557200D02*
X129690476Y-81509580D01*
X103711309Y-73793628D02*
X103711309Y-74269819D01*
X103377976Y-73269819D02*
X103711309Y-73793628D01*
X103711309Y-73793628D02*
X104044642Y-73269819D01*
X104901785Y-74269819D02*
X104330357Y-74269819D01*
X104616071Y-74269819D02*
X104616071Y-73269819D01*
X104616071Y-73269819D02*
X104520833Y-73412676D01*
X104520833Y-73412676D02*
X104425595Y-73507914D01*
X104425595Y-73507914D02*
X104330357Y-73555533D01*
X102684819Y-62448333D02*
X103399104Y-62448333D01*
X103399104Y-62448333D02*
X103541961Y-62495952D01*
X103541961Y-62495952D02*
X103637200Y-62591190D01*
X103637200Y-62591190D02*
X103684819Y-62734047D01*
X103684819Y-62734047D02*
X103684819Y-62829285D01*
X102684819Y-62067380D02*
X102684819Y-61448333D01*
X102684819Y-61448333D02*
X103065771Y-61781666D01*
X103065771Y-61781666D02*
X103065771Y-61638809D01*
X103065771Y-61638809D02*
X103113390Y-61543571D01*
X103113390Y-61543571D02*
X103161009Y-61495952D01*
X103161009Y-61495952D02*
X103256247Y-61448333D01*
X103256247Y-61448333D02*
X103494342Y-61448333D01*
X103494342Y-61448333D02*
X103589580Y-61495952D01*
X103589580Y-61495952D02*
X103637200Y-61543571D01*
X103637200Y-61543571D02*
X103684819Y-61638809D01*
X103684819Y-61638809D02*
X103684819Y-61924523D01*
X103684819Y-61924523D02*
X103637200Y-62019761D01*
X103637200Y-62019761D02*
X103589580Y-62067380D01*
X128738095Y-63104819D02*
X128738095Y-62104819D01*
X128738095Y-62581009D02*
X129309523Y-62581009D01*
X129309523Y-63104819D02*
X129309523Y-62104819D01*
X129738095Y-62200057D02*
X129785714Y-62152438D01*
X129785714Y-62152438D02*
X129880952Y-62104819D01*
X129880952Y-62104819D02*
X130119047Y-62104819D01*
X130119047Y-62104819D02*
X130214285Y-62152438D01*
X130214285Y-62152438D02*
X130261904Y-62200057D01*
X130261904Y-62200057D02*
X130309523Y-62295295D01*
X130309523Y-62295295D02*
X130309523Y-62390533D01*
X130309523Y-62390533D02*
X130261904Y-62533390D01*
X130261904Y-62533390D02*
X129690476Y-63104819D01*
X129690476Y-63104819D02*
X130309523Y-63104819D01*
X117235595Y-67134819D02*
X117235595Y-67944342D01*
X117235595Y-67944342D02*
X117283214Y-68039580D01*
X117283214Y-68039580D02*
X117330833Y-68087200D01*
X117330833Y-68087200D02*
X117426071Y-68134819D01*
X117426071Y-68134819D02*
X117616547Y-68134819D01*
X117616547Y-68134819D02*
X117711785Y-68087200D01*
X117711785Y-68087200D02*
X117759404Y-68039580D01*
X117759404Y-68039580D02*
X117807023Y-67944342D01*
X117807023Y-67944342D02*
X117807023Y-67134819D01*
X118807023Y-68134819D02*
X118235595Y-68134819D01*
X118521309Y-68134819D02*
X118521309Y-67134819D01*
X118521309Y-67134819D02*
X118426071Y-67277676D01*
X118426071Y-67277676D02*
X118330833Y-67372914D01*
X118330833Y-67372914D02*
X118235595Y-67420533D01*
X89691666Y-81879819D02*
X89691666Y-82594104D01*
X89691666Y-82594104D02*
X89644047Y-82736961D01*
X89644047Y-82736961D02*
X89548809Y-82832200D01*
X89548809Y-82832200D02*
X89405952Y-82879819D01*
X89405952Y-82879819D02*
X89310714Y-82879819D01*
X90691666Y-82879819D02*
X90120238Y-82879819D01*
X90405952Y-82879819D02*
X90405952Y-81879819D01*
X90405952Y-81879819D02*
X90310714Y-82022676D01*
X90310714Y-82022676D02*
X90215476Y-82117914D01*
X90215476Y-82117914D02*
X90120238Y-82165533D01*
D12*
X106630000Y-78250000D02*
X106690000Y-78250000D01*
X105760000Y-78250000D02*
X106630000Y-78250000D01*
X106630000Y-83150000D02*
X106690000Y-83150000D01*
X105760000Y-83150000D02*
X106630000Y-83150000D01*
X105880000Y-74640000D02*
X105760000Y-74640000D01*
X105760000Y-86760000D01*
X105880000Y-86760000D01*
X105880000Y-74640000D01*
X105760000Y-74990000D02*
X92240000Y-74990000D01*
X92240000Y-86410000D01*
X105760000Y-86410000D01*
X105760000Y-74990000D01*
X104230000Y-67770000D02*
X104230000Y-66500000D01*
X105500000Y-67770000D02*
X104230000Y-67770000D01*
X107610000Y-65422642D02*
X107610000Y-65110000D01*
X108470000Y-65422642D02*
X108470000Y-65110000D01*
X105070000Y-65340000D02*
X105070000Y-65110000D01*
X105930000Y-65340000D02*
X105930000Y-65110000D01*
X104120000Y-65110000D02*
X109420000Y-65110000D01*
X106770000Y-65110000D02*
X106770000Y-62350000D01*
X109420000Y-65110000D02*
X109420000Y-62350000D01*
X104120000Y-62350000D02*
X104120000Y-65110000D01*
X107610000Y-62350000D02*
X107610000Y-56350000D01*
X109420000Y-62350000D02*
X104120000Y-62350000D01*
X107610000Y-56350000D02*
X108470000Y-56350000D01*
X108470000Y-56350000D02*
X108470000Y-62350000D01*
X105070000Y-62350000D02*
X105930000Y-62350000D01*
X105930000Y-56350000D01*
X105070000Y-56350000D01*
X105070000Y-62350000D01*
G36*
X105070000Y-62350000D02*
G01*
X105930000Y-62350000D01*
X105930000Y-56350000D01*
X105070000Y-56350000D01*
X105070000Y-62350000D01*
G37*
X117997500Y-68520000D02*
X116047500Y-68520000D01*
X117997500Y-68520000D02*
X119947500Y-68520000D01*
X117997500Y-78640000D02*
X116047500Y-78640000D01*
X117997500Y-78640000D02*
X119947500Y-78640000D01*
X115297500Y-68575000D02*
X115057500Y-68245000D01*
X115537500Y-68245000D01*
X115297500Y-68575000D01*
G36*
X115297500Y-68575000D02*
G01*
X115057500Y-68245000D01*
X115537500Y-68245000D01*
X115297500Y-68575000D01*
G37*
X130100000Y-70070000D02*
X130100000Y-75820000D01*
X124100000Y-70070000D02*
X130100000Y-70070000D01*
X125210000Y-71420000D02*
X125210000Y-76500000D01*
X124200000Y-71420000D02*
X125210000Y-71420000D01*
X125210000Y-76500000D02*
X124200000Y-76500000D01*
X130050000Y-77170000D02*
X130050000Y-80370000D01*
X130050000Y-80370000D02*
X124100000Y-80370000D01*
X124100000Y-80370000D02*
X124100000Y-70070000D01*
X102425000Y-79285000D02*
X102425000Y-78825000D01*
X102425000Y-79285000D02*
X100325000Y-79285000D01*
X101945000Y-70565000D02*
X100325000Y-70565000D01*
X100325000Y-80325000D02*
X100325000Y-79285000D01*
X100325000Y-70565000D02*
X100325000Y-69525000D01*
X96540000Y-81035000D02*
X96270000Y-81035000D01*
X96540000Y-68815000D02*
X96270000Y-68815000D01*
%LPC*%
D13*
X112819454Y-85835300D02*
X112948026Y-85878157D01*
X112948026Y-85878157D02*
X113162311Y-85878157D01*
X113162311Y-85878157D02*
X113248026Y-85835300D01*
X113248026Y-85835300D02*
X113290883Y-85792442D01*
X113290883Y-85792442D02*
X113333740Y-85706728D01*
X113333740Y-85706728D02*
X113333740Y-85621014D01*
X113333740Y-85621014D02*
X113290883Y-85535300D01*
X113290883Y-85535300D02*
X113248026Y-85492442D01*
X113248026Y-85492442D02*
X113162311Y-85449585D01*
X113162311Y-85449585D02*
X112990883Y-85406728D01*
X112990883Y-85406728D02*
X112905168Y-85363871D01*
X112905168Y-85363871D02*
X112862311Y-85321014D01*
X112862311Y-85321014D02*
X112819454Y-85235300D01*
X112819454Y-85235300D02*
X112819454Y-85149585D01*
X112819454Y-85149585D02*
X112862311Y-85063871D01*
X112862311Y-85063871D02*
X112905168Y-85021014D01*
X112905168Y-85021014D02*
X112990883Y-84978157D01*
X112990883Y-84978157D02*
X113205168Y-84978157D01*
X113205168Y-84978157D02*
X113333740Y-85021014D01*
X113719454Y-85878157D02*
X113719454Y-84978157D01*
X114105169Y-85878157D02*
X114105169Y-85406728D01*
X114105169Y-85406728D02*
X114062311Y-85321014D01*
X114062311Y-85321014D02*
X113976597Y-85278157D01*
X113976597Y-85278157D02*
X113848026Y-85278157D01*
X113848026Y-85278157D02*
X113762311Y-85321014D01*
X113762311Y-85321014D02*
X113719454Y-85363871D01*
X114919455Y-85278157D02*
X114919455Y-85878157D01*
X114533740Y-85278157D02*
X114533740Y-85749585D01*
X114533740Y-85749585D02*
X114576597Y-85835300D01*
X114576597Y-85835300D02*
X114662312Y-85878157D01*
X114662312Y-85878157D02*
X114790883Y-85878157D01*
X114790883Y-85878157D02*
X114876597Y-85835300D01*
X114876597Y-85835300D02*
X114919455Y-85792442D01*
X115348026Y-85878157D02*
X115348026Y-84978157D01*
X115348026Y-85321014D02*
X115433741Y-85278157D01*
X115433741Y-85278157D02*
X115605169Y-85278157D01*
X115605169Y-85278157D02*
X115690883Y-85321014D01*
X115690883Y-85321014D02*
X115733741Y-85363871D01*
X115733741Y-85363871D02*
X115776598Y-85449585D01*
X115776598Y-85449585D02*
X115776598Y-85706728D01*
X115776598Y-85706728D02*
X115733741Y-85792442D01*
X115733741Y-85792442D02*
X115690883Y-85835300D01*
X115690883Y-85835300D02*
X115605169Y-85878157D01*
X115605169Y-85878157D02*
X115433741Y-85878157D01*
X115433741Y-85878157D02*
X115348026Y-85835300D01*
X116162312Y-85878157D02*
X116162312Y-84978157D01*
X116548027Y-85878157D02*
X116548027Y-85406728D01*
X116548027Y-85406728D02*
X116505169Y-85321014D01*
X116505169Y-85321014D02*
X116419455Y-85278157D01*
X116419455Y-85278157D02*
X116290884Y-85278157D01*
X116290884Y-85278157D02*
X116205169Y-85321014D01*
X116205169Y-85321014D02*
X116162312Y-85363871D01*
X117362313Y-85878157D02*
X117362313Y-85406728D01*
X117362313Y-85406728D02*
X117319455Y-85321014D01*
X117319455Y-85321014D02*
X117233741Y-85278157D01*
X117233741Y-85278157D02*
X117062313Y-85278157D01*
X117062313Y-85278157D02*
X116976598Y-85321014D01*
X117362313Y-85835300D02*
X117276598Y-85878157D01*
X117276598Y-85878157D02*
X117062313Y-85878157D01*
X117062313Y-85878157D02*
X116976598Y-85835300D01*
X116976598Y-85835300D02*
X116933741Y-85749585D01*
X116933741Y-85749585D02*
X116933741Y-85663871D01*
X116933741Y-85663871D02*
X116976598Y-85578157D01*
X116976598Y-85578157D02*
X117062313Y-85535300D01*
X117062313Y-85535300D02*
X117276598Y-85535300D01*
X117276598Y-85535300D02*
X117362313Y-85492442D01*
X117790884Y-85878157D02*
X117790884Y-85278157D01*
X117790884Y-85363871D02*
X117833741Y-85321014D01*
X117833741Y-85321014D02*
X117919456Y-85278157D01*
X117919456Y-85278157D02*
X118048027Y-85278157D01*
X118048027Y-85278157D02*
X118133741Y-85321014D01*
X118133741Y-85321014D02*
X118176599Y-85406728D01*
X118176599Y-85406728D02*
X118176599Y-85878157D01*
X118176599Y-85406728D02*
X118219456Y-85321014D01*
X118219456Y-85321014D02*
X118305170Y-85278157D01*
X118305170Y-85278157D02*
X118433741Y-85278157D01*
X118433741Y-85278157D02*
X118519456Y-85321014D01*
X118519456Y-85321014D02*
X118562313Y-85406728D01*
X118562313Y-85406728D02*
X118562313Y-85878157D01*
X119590884Y-84978157D02*
X119805170Y-85878157D01*
X119805170Y-85878157D02*
X119976598Y-85235300D01*
X119976598Y-85235300D02*
X120148027Y-85878157D01*
X120148027Y-85878157D02*
X120362313Y-84978157D01*
X121090884Y-85878157D02*
X121090884Y-85406728D01*
X121090884Y-85406728D02*
X121048026Y-85321014D01*
X121048026Y-85321014D02*
X120962312Y-85278157D01*
X120962312Y-85278157D02*
X120790884Y-85278157D01*
X120790884Y-85278157D02*
X120705169Y-85321014D01*
X121090884Y-85835300D02*
X121005169Y-85878157D01*
X121005169Y-85878157D02*
X120790884Y-85878157D01*
X120790884Y-85878157D02*
X120705169Y-85835300D01*
X120705169Y-85835300D02*
X120662312Y-85749585D01*
X120662312Y-85749585D02*
X120662312Y-85663871D01*
X120662312Y-85663871D02*
X120705169Y-85578157D01*
X120705169Y-85578157D02*
X120790884Y-85535300D01*
X120790884Y-85535300D02*
X121005169Y-85535300D01*
X121005169Y-85535300D02*
X121090884Y-85492442D01*
X121519455Y-85878157D02*
X121519455Y-85278157D01*
X121519455Y-84978157D02*
X121476598Y-85021014D01*
X121476598Y-85021014D02*
X121519455Y-85063871D01*
X121519455Y-85063871D02*
X121562312Y-85021014D01*
X121562312Y-85021014D02*
X121519455Y-84978157D01*
X121519455Y-84978157D02*
X121519455Y-85063871D01*
X121948026Y-85278157D02*
X121948026Y-85878157D01*
X121948026Y-85363871D02*
X121990883Y-85321014D01*
X121990883Y-85321014D02*
X122076598Y-85278157D01*
X122076598Y-85278157D02*
X122205169Y-85278157D01*
X122205169Y-85278157D02*
X122290883Y-85321014D01*
X122290883Y-85321014D02*
X122333741Y-85406728D01*
X122333741Y-85406728D02*
X122333741Y-85878157D01*
X123148027Y-85278157D02*
X123148027Y-86006728D01*
X123148027Y-86006728D02*
X123105169Y-86092442D01*
X123105169Y-86092442D02*
X123062312Y-86135300D01*
X123062312Y-86135300D02*
X122976598Y-86178157D01*
X122976598Y-86178157D02*
X122848027Y-86178157D01*
X122848027Y-86178157D02*
X122762312Y-86135300D01*
X123148027Y-85835300D02*
X123062312Y-85878157D01*
X123062312Y-85878157D02*
X122890884Y-85878157D01*
X122890884Y-85878157D02*
X122805169Y-85835300D01*
X122805169Y-85835300D02*
X122762312Y-85792442D01*
X122762312Y-85792442D02*
X122719455Y-85706728D01*
X122719455Y-85706728D02*
X122719455Y-85449585D01*
X122719455Y-85449585D02*
X122762312Y-85363871D01*
X122762312Y-85363871D02*
X122805169Y-85321014D01*
X122805169Y-85321014D02*
X122890884Y-85278157D01*
X122890884Y-85278157D02*
X123062312Y-85278157D01*
X123062312Y-85278157D02*
X123148027Y-85321014D01*
X123962313Y-85878157D02*
X123962313Y-85406728D01*
X123962313Y-85406728D02*
X123919455Y-85321014D01*
X123919455Y-85321014D02*
X123833741Y-85278157D01*
X123833741Y-85278157D02*
X123662313Y-85278157D01*
X123662313Y-85278157D02*
X123576598Y-85321014D01*
X123962313Y-85835300D02*
X123876598Y-85878157D01*
X123876598Y-85878157D02*
X123662313Y-85878157D01*
X123662313Y-85878157D02*
X123576598Y-85835300D01*
X123576598Y-85835300D02*
X123533741Y-85749585D01*
X123533741Y-85749585D02*
X123533741Y-85663871D01*
X123533741Y-85663871D02*
X123576598Y-85578157D01*
X123576598Y-85578157D02*
X123662313Y-85535300D01*
X123662313Y-85535300D02*
X123876598Y-85535300D01*
X123876598Y-85535300D02*
X123962313Y-85492442D01*
X124776599Y-85878157D02*
X124776599Y-84978157D01*
X124776599Y-85835300D02*
X124690884Y-85878157D01*
X124690884Y-85878157D02*
X124519456Y-85878157D01*
X124519456Y-85878157D02*
X124433741Y-85835300D01*
X124433741Y-85835300D02*
X124390884Y-85792442D01*
X124390884Y-85792442D02*
X124348027Y-85706728D01*
X124348027Y-85706728D02*
X124348027Y-85449585D01*
X124348027Y-85449585D02*
X124390884Y-85363871D01*
X124390884Y-85363871D02*
X124433741Y-85321014D01*
X124433741Y-85321014D02*
X124519456Y-85278157D01*
X124519456Y-85278157D02*
X124690884Y-85278157D01*
X124690884Y-85278157D02*
X124776599Y-85321014D01*
X125548027Y-85835300D02*
X125462313Y-85878157D01*
X125462313Y-85878157D02*
X125290885Y-85878157D01*
X125290885Y-85878157D02*
X125205170Y-85835300D01*
X125205170Y-85835300D02*
X125162313Y-85749585D01*
X125162313Y-85749585D02*
X125162313Y-85406728D01*
X125162313Y-85406728D02*
X125205170Y-85321014D01*
X125205170Y-85321014D02*
X125290885Y-85278157D01*
X125290885Y-85278157D02*
X125462313Y-85278157D01*
X125462313Y-85278157D02*
X125548027Y-85321014D01*
X125548027Y-85321014D02*
X125590885Y-85406728D01*
X125590885Y-85406728D02*
X125590885Y-85492442D01*
X125590885Y-85492442D02*
X125162313Y-85578157D01*
D14*
X97000000Y-65500000D03*
X97000000Y-84000000D03*
X129500000Y-84000000D03*
D15*
X107500000Y-78250000D03*
X107500000Y-83150000D03*
D16*
X105500000Y-66500000D03*
D17*
X108040000Y-66500000D03*
D14*
X129500000Y-65500000D03*
D18*
X115522500Y-69135000D03*
X115522500Y-70405000D03*
X115522500Y-71675000D03*
X115522500Y-72945000D03*
X115522500Y-74215000D03*
X115522500Y-75485000D03*
X115522500Y-76755000D03*
X115522500Y-78025000D03*
X120472500Y-78025000D03*
X120472500Y-76755000D03*
X120472500Y-75485000D03*
X120472500Y-74215000D03*
X120472500Y-72945000D03*
X120472500Y-71675000D03*
X120472500Y-70405000D03*
X120472500Y-69135000D03*
D19*
X129660000Y-76500000D03*
D20*
X127500000Y-71420000D03*
D21*
X127500000Y-73960000D03*
X127500000Y-76500000D03*
X127500000Y-79040000D03*
D19*
X98400000Y-77175000D03*
X98400000Y-72675000D03*
D22*
X101000000Y-78425000D03*
X101000000Y-75925000D03*
X101000000Y-73925000D03*
X101000000Y-71425000D03*
D23*
X98400000Y-80775000D03*
X98400000Y-69075000D03*
D24*
X105740000Y-84850000D03*
X104925000Y-84850000D03*
D25*
X107145000Y-72870000D03*
X107960000Y-72870000D03*
%LPD*%
M02*
