%TF.GenerationSoftware,KiCad,Pcbnew,9.0.3*%
%TF.CreationDate,2025-08-08T09:14:45+05:30*%
%TF.ProjectId,US-UART(Converter),55532d55-4152-4542-9843-6f6e76657274,rev?*%
%TF.SameCoordinates,Original*%
%TF.FileFunction,Copper,L2,Bot*%
%TF.FilePolarity,Positive*%
%FSLAX46Y46*%
G04 Gerber Fmt 4.6, Leading zero omitted, Abs format (unit mm)*
G04 Created by KiCad (PCBNEW 9.0.3) date 2025-08-08 09:14:45*
%MOMM*%
%LPD*%
G01*
G04 APERTURE LIST*
%TA.AperFunction,FiducialPad,Global*%
%ADD10C,3.800000*%
%TD*%
%TA.AperFunction,ComponentPad*%
%ADD11C,1.500000*%
%TD*%
%TA.AperFunction,ComponentPad*%
%ADD12R,1.700000X1.700000*%
%TD*%
%TA.AperFunction,ComponentPad*%
%ADD13C,1.700000*%
%TD*%
%TA.AperFunction,ComponentPad*%
%ADD14R,2.030000X1.730000*%
%TD*%
%TA.AperFunction,ComponentPad*%
%ADD15O,2.030000X1.730000*%
%TD*%
%TA.AperFunction,HeatsinkPad*%
%ADD16O,3.200000X1.300000*%
%TD*%
%TA.AperFunction,ViaPad*%
%ADD17C,0.600000*%
%TD*%
%TA.AperFunction,Conductor*%
%ADD18C,0.200000*%
%TD*%
G04 APERTURE END LIST*
D10*
X97000000Y-65500000D03*
X97000000Y-84000000D03*
X129500000Y-84000000D03*
D11*
X107500000Y-78250000D03*
X107500000Y-83150000D03*
D12*
X105500000Y-66500000D03*
D13*
X108040000Y-66500000D03*
D10*
X129500000Y-65500000D03*
D14*
X127500000Y-71420000D03*
D15*
X127500000Y-73960000D03*
X127500000Y-76500000D03*
X127500000Y-79040000D03*
D16*
X98400000Y-80775000D03*
X98400000Y-69075000D03*
D17*
X109000103Y-72899766D03*
X114000000Y-69500000D03*
X113500000Y-78500000D03*
X112000000Y-81500000D03*
X113555515Y-76055515D03*
X102363235Y-76136765D03*
D18*
X109000000Y-72899869D02*
X109000103Y-72899766D01*
X109000000Y-73000000D02*
X109000000Y-72899869D01*
X112500000Y-69500000D02*
X109000000Y-73000000D01*
X114000000Y-69500000D02*
X112500000Y-69500000D01*
X112000000Y-80000000D02*
X113500000Y-78500000D01*
X112000000Y-81500000D02*
X112000000Y-80000000D01*
X127500000Y-67000000D02*
X127500000Y-71420000D01*
X127000000Y-66500000D02*
X127500000Y-67000000D01*
X108040000Y-66500000D02*
X127000000Y-66500000D01*
X113363235Y-76136765D02*
X102363235Y-76136765D01*
X113500000Y-76000000D02*
X113363235Y-76136765D01*
X113555515Y-76055515D02*
X113500000Y-76000000D01*
%TA.AperFunction,Conductor*%
G36*
X127872358Y-63520185D02*
G01*
X127918113Y-63572989D01*
X127928057Y-63642147D01*
X127899032Y-63705703D01*
X127893000Y-63712181D01*
X127707265Y-63897915D01*
X127539161Y-64108712D01*
X127395714Y-64337005D01*
X127278734Y-64579917D01*
X127189687Y-64834397D01*
X127189684Y-64834405D01*
X127129688Y-65097268D01*
X127129686Y-65097280D01*
X127099500Y-65365186D01*
X127099500Y-65634815D01*
X127113787Y-65761616D01*
X127111032Y-65777340D01*
X127113305Y-65793144D01*
X127105127Y-65811050D01*
X127101732Y-65830437D01*
X127090914Y-65842175D01*
X127084281Y-65856701D01*
X127067720Y-65867343D01*
X127054383Y-65881817D01*
X127038240Y-65886289D01*
X127025503Y-65894476D01*
X126990571Y-65899498D01*
X126990569Y-65899499D01*
X126920943Y-65899499D01*
X126920939Y-65899499D01*
X126913333Y-65899500D01*
X126913332Y-65899499D01*
X126913331Y-65899500D01*
X109325719Y-65899500D01*
X109258680Y-65879815D01*
X109215235Y-65831795D01*
X109195052Y-65792185D01*
X109195051Y-65792184D01*
X109070109Y-65620213D01*
X108919786Y-65469890D01*
X108747820Y-65344951D01*
X108558414Y-65248444D01*
X108558413Y-65248443D01*
X108558412Y-65248443D01*
X108356243Y-65182754D01*
X108356241Y-65182753D01*
X108356240Y-65182753D01*
X108194957Y-65157208D01*
X108146287Y-65149500D01*
X107933713Y-65149500D01*
X107885042Y-65157208D01*
X107723760Y-65182753D01*
X107521585Y-65248444D01*
X107332179Y-65344951D01*
X107160215Y-65469889D01*
X107046673Y-65583431D01*
X106985350Y-65616915D01*
X106915658Y-65611931D01*
X106859725Y-65570059D01*
X106842810Y-65539082D01*
X106793797Y-65407671D01*
X106793793Y-65407664D01*
X106707547Y-65292455D01*
X106707544Y-65292452D01*
X106592335Y-65206206D01*
X106592328Y-65206202D01*
X106457482Y-65155908D01*
X106457483Y-65155908D01*
X106397883Y-65149501D01*
X106397881Y-65149500D01*
X106397873Y-65149500D01*
X106397864Y-65149500D01*
X104602129Y-65149500D01*
X104602123Y-65149501D01*
X104542516Y-65155908D01*
X104407671Y-65206202D01*
X104407664Y-65206206D01*
X104292455Y-65292452D01*
X104292452Y-65292455D01*
X104206206Y-65407664D01*
X104206202Y-65407671D01*
X104155908Y-65542517D01*
X104149501Y-65602116D01*
X104149500Y-65602135D01*
X104149500Y-67397870D01*
X104149501Y-67397876D01*
X104155908Y-67457483D01*
X104206202Y-67592328D01*
X104206206Y-67592335D01*
X104292452Y-67707544D01*
X104292455Y-67707547D01*
X104407664Y-67793793D01*
X104407671Y-67793797D01*
X104542517Y-67844091D01*
X104542516Y-67844091D01*
X104549444Y-67844835D01*
X104602127Y-67850500D01*
X106397872Y-67850499D01*
X106457483Y-67844091D01*
X106592331Y-67793796D01*
X106707546Y-67707546D01*
X106793796Y-67592331D01*
X106842810Y-67460916D01*
X106884681Y-67404984D01*
X106950145Y-67380566D01*
X107018418Y-67395417D01*
X107046673Y-67416569D01*
X107160213Y-67530109D01*
X107332179Y-67655048D01*
X107332181Y-67655049D01*
X107332184Y-67655051D01*
X107521588Y-67751557D01*
X107723757Y-67817246D01*
X107933713Y-67850500D01*
X107933714Y-67850500D01*
X108146286Y-67850500D01*
X108146287Y-67850500D01*
X108356243Y-67817246D01*
X108558412Y-67751557D01*
X108747816Y-67655051D01*
X108817690Y-67604285D01*
X108919786Y-67530109D01*
X108919788Y-67530106D01*
X108919792Y-67530104D01*
X109070104Y-67379792D01*
X109070106Y-67379788D01*
X109070109Y-67379786D01*
X109147155Y-67273739D01*
X109195051Y-67207816D01*
X109201744Y-67194681D01*
X109215235Y-67168205D01*
X109263209Y-67117409D01*
X109325719Y-67100500D01*
X126699903Y-67100500D01*
X126729343Y-67109144D01*
X126759330Y-67115668D01*
X126764345Y-67119422D01*
X126766942Y-67120185D01*
X126787584Y-67136819D01*
X126863181Y-67212416D01*
X126896666Y-67273739D01*
X126899500Y-67300097D01*
X126899500Y-69930500D01*
X126879815Y-69997539D01*
X126827011Y-70043294D01*
X126775500Y-70054500D01*
X126437130Y-70054500D01*
X126437123Y-70054501D01*
X126377516Y-70060908D01*
X126242671Y-70111202D01*
X126242664Y-70111206D01*
X126127455Y-70197452D01*
X126127452Y-70197455D01*
X126041206Y-70312664D01*
X126041202Y-70312671D01*
X125990908Y-70447517D01*
X125984501Y-70507116D01*
X125984501Y-70507123D01*
X125984500Y-70507135D01*
X125984500Y-72332870D01*
X125984501Y-72332876D01*
X125990908Y-72392483D01*
X126041202Y-72527328D01*
X126041206Y-72527335D01*
X126127452Y-72642544D01*
X126127455Y-72642547D01*
X126242664Y-72728793D01*
X126242673Y-72728798D01*
X126309821Y-72753842D01*
X126358632Y-72772047D01*
X126414566Y-72813917D01*
X126438984Y-72879381D01*
X126424133Y-72947654D01*
X126402982Y-72975910D01*
X126308454Y-73070438D01*
X126182120Y-73244321D01*
X126084541Y-73435829D01*
X126084540Y-73435832D01*
X126018124Y-73640240D01*
X126018124Y-73640243D01*
X125984500Y-73852534D01*
X125984500Y-74067465D01*
X126018124Y-74279756D01*
X126018124Y-74279759D01*
X126084540Y-74484167D01*
X126084541Y-74484170D01*
X126182120Y-74675678D01*
X126308455Y-74849563D01*
X126460437Y-75001545D01*
X126606181Y-75107434D01*
X126636802Y-75129682D01*
X126679467Y-75185012D01*
X126685446Y-75254626D01*
X126652840Y-75316421D01*
X126636802Y-75330318D01*
X126634322Y-75332120D01*
X126460437Y-75458455D01*
X126460435Y-75458457D01*
X126460434Y-75458457D01*
X126308457Y-75610434D01*
X126308457Y-75610435D01*
X126308455Y-75610437D01*
X126296805Y-75626472D01*
X126182120Y-75784321D01*
X126084541Y-75975829D01*
X126084540Y-75975832D01*
X126018124Y-76180240D01*
X126018124Y-76180243D01*
X126000896Y-76289016D01*
X125984500Y-76392533D01*
X125984500Y-76607467D01*
X126004460Y-76733489D01*
X126018124Y-76819756D01*
X126018124Y-76819759D01*
X126084540Y-77024167D01*
X126084541Y-77024170D01*
X126134281Y-77121789D01*
X126182120Y-77215678D01*
X126308455Y-77389563D01*
X126460437Y-77541545D01*
X126533453Y-77594594D01*
X126637226Y-77669990D01*
X126679892Y-77725320D01*
X126685871Y-77794933D01*
X126653265Y-77856728D01*
X126637227Y-77870626D01*
X126460760Y-77998838D01*
X126460759Y-77998838D01*
X126308838Y-78150759D01*
X126182547Y-78324583D01*
X126085003Y-78516024D01*
X126018610Y-78720364D01*
X126007581Y-78790000D01*
X127055440Y-78790000D01*
X127024755Y-78843147D01*
X126990000Y-78972857D01*
X126990000Y-79107143D01*
X127024755Y-79236853D01*
X127055440Y-79290000D01*
X126007581Y-79290000D01*
X126018610Y-79359635D01*
X126085003Y-79563975D01*
X126182547Y-79755416D01*
X126308838Y-79929240D01*
X126460759Y-80081161D01*
X126634583Y-80207452D01*
X126826024Y-80304996D01*
X127030358Y-80371388D01*
X127242573Y-80405000D01*
X127250000Y-80405000D01*
X127250000Y-79484560D01*
X127303147Y-79515245D01*
X127432857Y-79550000D01*
X127567143Y-79550000D01*
X127696853Y-79515245D01*
X127750000Y-79484560D01*
X127750000Y-80405000D01*
X127757427Y-80405000D01*
X127969639Y-80371388D01*
X127969642Y-80371388D01*
X128173975Y-80304996D01*
X128365416Y-80207452D01*
X128539240Y-80081161D01*
X128691161Y-79929240D01*
X128817452Y-79755416D01*
X128914996Y-79563975D01*
X128981389Y-79359635D01*
X128992419Y-79290000D01*
X127944560Y-79290000D01*
X127975245Y-79236853D01*
X128010000Y-79107143D01*
X128010000Y-78972857D01*
X127975245Y-78843147D01*
X127944560Y-78790000D01*
X128992419Y-78790000D01*
X128981389Y-78720364D01*
X128914996Y-78516024D01*
X128817452Y-78324583D01*
X128691161Y-78150759D01*
X128539240Y-77998838D01*
X128362772Y-77870626D01*
X128320107Y-77815296D01*
X128314128Y-77745682D01*
X128346734Y-77683888D01*
X128362773Y-77669990D01*
X128365675Y-77667881D01*
X128365678Y-77667880D01*
X128539563Y-77541545D01*
X128691545Y-77389563D01*
X128817880Y-77215678D01*
X128884094Y-77085724D01*
X128932068Y-77034929D01*
X128999889Y-77018134D01*
X129066024Y-77040671D01*
X129082260Y-77054339D01*
X129149707Y-77121786D01*
X129149711Y-77121789D01*
X129280814Y-77209390D01*
X129280827Y-77209397D01*
X129388138Y-77253846D01*
X129426503Y-77269737D01*
X129559400Y-77296172D01*
X129581153Y-77300499D01*
X129581156Y-77300500D01*
X129581158Y-77300500D01*
X129738844Y-77300500D01*
X129738845Y-77300499D01*
X129893497Y-77269737D01*
X130039179Y-77209394D01*
X130170289Y-77121789D01*
X130281789Y-77010289D01*
X130369394Y-76879179D01*
X130429737Y-76733497D01*
X130460500Y-76578842D01*
X130460500Y-76421158D01*
X130460500Y-76421155D01*
X130460499Y-76421153D01*
X130434214Y-76289012D01*
X130429737Y-76266503D01*
X130408657Y-76215611D01*
X130369397Y-76120827D01*
X130369390Y-76120814D01*
X130281789Y-75989711D01*
X130281786Y-75989707D01*
X130170292Y-75878213D01*
X130170288Y-75878210D01*
X130039185Y-75790609D01*
X130039172Y-75790602D01*
X129893501Y-75730264D01*
X129893489Y-75730261D01*
X129738845Y-75699500D01*
X129738842Y-75699500D01*
X129581158Y-75699500D01*
X129581155Y-75699500D01*
X129426510Y-75730261D01*
X129426498Y-75730264D01*
X129280827Y-75790602D01*
X129280814Y-75790609D01*
X129149711Y-75878210D01*
X129082260Y-75945661D01*
X129020936Y-75979145D01*
X128951245Y-75974160D01*
X128895311Y-75932289D01*
X128884094Y-75914274D01*
X128859793Y-75866582D01*
X128817880Y-75784322D01*
X128691545Y-75610437D01*
X128539563Y-75458455D01*
X128505529Y-75433728D01*
X128363198Y-75330318D01*
X128320532Y-75274988D01*
X128314553Y-75205375D01*
X128347159Y-75143580D01*
X128363198Y-75129682D01*
X128391381Y-75109205D01*
X128539563Y-75001545D01*
X128691545Y-74849563D01*
X128817880Y-74675678D01*
X128915458Y-74484170D01*
X128981876Y-74279755D01*
X129015500Y-74067467D01*
X129015500Y-73852533D01*
X128981876Y-73640245D01*
X128981875Y-73640241D01*
X128981875Y-73640240D01*
X128915459Y-73435832D01*
X128915458Y-73435829D01*
X128844613Y-73296789D01*
X128817880Y-73244322D01*
X128691545Y-73070437D01*
X128597018Y-72975910D01*
X128563533Y-72914587D01*
X128568517Y-72844895D01*
X128610389Y-72788962D01*
X128641362Y-72772049D01*
X128757331Y-72728796D01*
X128872546Y-72642546D01*
X128958796Y-72527331D01*
X129009091Y-72392483D01*
X129015500Y-72332873D01*
X129015499Y-70507128D01*
X129009091Y-70447517D01*
X128958796Y-70312669D01*
X128958795Y-70312668D01*
X128958793Y-70312664D01*
X128872547Y-70197455D01*
X128872544Y-70197452D01*
X128757335Y-70111206D01*
X128757328Y-70111202D01*
X128622482Y-70060908D01*
X128622483Y-70060908D01*
X128562883Y-70054501D01*
X128562881Y-70054500D01*
X128562873Y-70054500D01*
X128562865Y-70054500D01*
X128224500Y-70054500D01*
X128157461Y-70034815D01*
X128111706Y-69982011D01*
X128100500Y-69930500D01*
X128100500Y-67680040D01*
X128120185Y-67613001D01*
X128172989Y-67567246D01*
X128242147Y-67557302D01*
X128290472Y-67575046D01*
X128337003Y-67604284D01*
X128579921Y-67721267D01*
X128757353Y-67783353D01*
X128834397Y-67810312D01*
X128834405Y-67810315D01*
X128834408Y-67810315D01*
X128834409Y-67810316D01*
X129097268Y-67870312D01*
X129365187Y-67900499D01*
X129365188Y-67900500D01*
X129365191Y-67900500D01*
X129634812Y-67900500D01*
X129634812Y-67900499D01*
X129902732Y-67870312D01*
X130165591Y-67810316D01*
X130420079Y-67721267D01*
X130662997Y-67604284D01*
X130891289Y-67460838D01*
X131102085Y-67292734D01*
X131287819Y-67107000D01*
X131349142Y-67073515D01*
X131418834Y-67078499D01*
X131474767Y-67120371D01*
X131499184Y-67185835D01*
X131499500Y-67194681D01*
X131499500Y-82305319D01*
X131479815Y-82372358D01*
X131427011Y-82418113D01*
X131357853Y-82428057D01*
X131294297Y-82399032D01*
X131287819Y-82393000D01*
X131102084Y-82207265D01*
X130994896Y-82121786D01*
X130891289Y-82039162D01*
X130669019Y-81899500D01*
X130662994Y-81895714D01*
X130420082Y-81778734D01*
X130165602Y-81689687D01*
X130165594Y-81689684D01*
X129968446Y-81644687D01*
X129902732Y-81629688D01*
X129902728Y-81629687D01*
X129902719Y-81629686D01*
X129634813Y-81599500D01*
X129634809Y-81599500D01*
X129365191Y-81599500D01*
X129365186Y-81599500D01*
X129097280Y-81629686D01*
X129097268Y-81629688D01*
X128834405Y-81689684D01*
X128834397Y-81689687D01*
X128579917Y-81778734D01*
X128337005Y-81895714D01*
X128108712Y-82039161D01*
X127897915Y-82207265D01*
X127707265Y-82397915D01*
X127539161Y-82608712D01*
X127395714Y-82837005D01*
X127278734Y-83079917D01*
X127189687Y-83334397D01*
X127189684Y-83334405D01*
X127129688Y-83597268D01*
X127129686Y-83597280D01*
X127099500Y-83865186D01*
X127099500Y-84134813D01*
X127129686Y-84402719D01*
X127129688Y-84402731D01*
X127189684Y-84665594D01*
X127189687Y-84665602D01*
X127278734Y-84920082D01*
X127395714Y-85162994D01*
X127395716Y-85162997D01*
X127539162Y-85391289D01*
X127664573Y-85548549D01*
X127707265Y-85602084D01*
X127893000Y-85787819D01*
X127926485Y-85849142D01*
X127921501Y-85918834D01*
X127879629Y-85974767D01*
X127814165Y-85999184D01*
X127805319Y-85999500D01*
X98694681Y-85999500D01*
X98627642Y-85979815D01*
X98581887Y-85927011D01*
X98571943Y-85857853D01*
X98600968Y-85794297D01*
X98607000Y-85787819D01*
X98792734Y-85602085D01*
X98960838Y-85391289D01*
X99104284Y-85162997D01*
X99221267Y-84920079D01*
X99310316Y-84665591D01*
X99370312Y-84402732D01*
X99400500Y-84134809D01*
X99400500Y-83865191D01*
X99370312Y-83597268D01*
X99310316Y-83334409D01*
X99221267Y-83079921D01*
X99207617Y-83051577D01*
X106249500Y-83051577D01*
X106249500Y-83248422D01*
X106280290Y-83442826D01*
X106341117Y-83630029D01*
X106430476Y-83805405D01*
X106546172Y-83964646D01*
X106685354Y-84103828D01*
X106844595Y-84219524D01*
X106927455Y-84261743D01*
X107019970Y-84308882D01*
X107019972Y-84308882D01*
X107019975Y-84308884D01*
X107120317Y-84341487D01*
X107207173Y-84369709D01*
X107401578Y-84400500D01*
X107401583Y-84400500D01*
X107598422Y-84400500D01*
X107792826Y-84369709D01*
X107980025Y-84308884D01*
X108155405Y-84219524D01*
X108314646Y-84103828D01*
X108453828Y-83964646D01*
X108569524Y-83805405D01*
X108658884Y-83630025D01*
X108719709Y-83442826D01*
X108750500Y-83248422D01*
X108750500Y-83051577D01*
X108719709Y-82857173D01*
X108658882Y-82669970D01*
X108569523Y-82494594D01*
X108453828Y-82335354D01*
X108314646Y-82196172D01*
X108155405Y-82080476D01*
X107980029Y-81991117D01*
X107792826Y-81930290D01*
X107598422Y-81899500D01*
X107598417Y-81899500D01*
X107401583Y-81899500D01*
X107401578Y-81899500D01*
X107207173Y-81930290D01*
X107019970Y-81991117D01*
X106844594Y-82080476D01*
X106754482Y-82145947D01*
X106685354Y-82196172D01*
X106685352Y-82196174D01*
X106685351Y-82196174D01*
X106546174Y-82335351D01*
X106546174Y-82335352D01*
X106546172Y-82335354D01*
X106500719Y-82397915D01*
X106430476Y-82494594D01*
X106341117Y-82669970D01*
X106280290Y-82857173D01*
X106249500Y-83051577D01*
X99207617Y-83051577D01*
X99104285Y-82837005D01*
X98999499Y-82670240D01*
X98960838Y-82608711D01*
X98792734Y-82397915D01*
X98602085Y-82207266D01*
X98602084Y-82207265D01*
X98602078Y-82207259D01*
X98525194Y-82145947D01*
X98485053Y-82088759D01*
X98482203Y-82018948D01*
X98517548Y-81958677D01*
X98579867Y-81927084D01*
X98602506Y-81925000D01*
X99440506Y-81925000D01*
X99619293Y-81896682D01*
X99791444Y-81840748D01*
X99791447Y-81840747D01*
X99952734Y-81758565D01*
X100099169Y-81652176D01*
X100227176Y-81524169D01*
X100302021Y-81421153D01*
X111199500Y-81421153D01*
X111199500Y-81578846D01*
X111230261Y-81733489D01*
X111230264Y-81733501D01*
X111290602Y-81879172D01*
X111290609Y-81879185D01*
X111378210Y-82010288D01*
X111378213Y-82010292D01*
X111489707Y-82121786D01*
X111489711Y-82121789D01*
X111620814Y-82209390D01*
X111620827Y-82209397D01*
X111766498Y-82269735D01*
X111766503Y-82269737D01*
X111921153Y-82300499D01*
X111921156Y-82300500D01*
X111921158Y-82300500D01*
X112078844Y-82300500D01*
X112078845Y-82300499D01*
X112233497Y-82269737D01*
X112379179Y-82209394D01*
X112510289Y-82121789D01*
X112621789Y-82010289D01*
X112709394Y-81879179D01*
X112769737Y-81733497D01*
X112800500Y-81578842D01*
X112800500Y-81421158D01*
X112800500Y-81421155D01*
X112800499Y-81421153D01*
X112769738Y-81266510D01*
X112769737Y-81266503D01*
X112769735Y-81266498D01*
X112709397Y-81120827D01*
X112709390Y-81120814D01*
X112621398Y-80989125D01*
X112600520Y-80922447D01*
X112600500Y-80920234D01*
X112600500Y-80300097D01*
X112620185Y-80233058D01*
X112636819Y-80212416D01*
X113057801Y-79791434D01*
X113514662Y-79334572D01*
X113575983Y-79301089D01*
X113578150Y-79300638D01*
X113636085Y-79289113D01*
X113733497Y-79269737D01*
X113879179Y-79209394D01*
X113887514Y-79203825D01*
X113968316Y-79149835D01*
X113986411Y-79137743D01*
X114010289Y-79121789D01*
X114121789Y-79010289D01*
X114209394Y-78879179D01*
X114269737Y-78733497D01*
X114300500Y-78578842D01*
X114300500Y-78421158D01*
X114300500Y-78421155D01*
X114300499Y-78421153D01*
X114269738Y-78266510D01*
X114269738Y-78266508D01*
X114269737Y-78266503D01*
X114222136Y-78151583D01*
X114209397Y-78120827D01*
X114209390Y-78120814D01*
X114121789Y-77989711D01*
X114121786Y-77989707D01*
X114010292Y-77878213D01*
X114010288Y-77878210D01*
X113879185Y-77790609D01*
X113879172Y-77790602D01*
X113733501Y-77730264D01*
X113733489Y-77730261D01*
X113578845Y-77699500D01*
X113578842Y-77699500D01*
X113421158Y-77699500D01*
X113421155Y-77699500D01*
X113266510Y-77730261D01*
X113266498Y-77730264D01*
X113120827Y-77790602D01*
X113120814Y-77790609D01*
X112989711Y-77878210D01*
X112989707Y-77878213D01*
X112878213Y-77989707D01*
X112878210Y-77989711D01*
X112790609Y-78120814D01*
X112790602Y-78120827D01*
X112730264Y-78266498D01*
X112730261Y-78266508D01*
X112699361Y-78421850D01*
X112666976Y-78483761D01*
X112665425Y-78485339D01*
X111519481Y-79631282D01*
X111519480Y-79631284D01*
X111474466Y-79709252D01*
X111469361Y-79718094D01*
X111469359Y-79718096D01*
X111440425Y-79768209D01*
X111440424Y-79768210D01*
X111440423Y-79768215D01*
X111399499Y-79920943D01*
X111399499Y-79920945D01*
X111399499Y-80089046D01*
X111399500Y-80089059D01*
X111399500Y-80920234D01*
X111379815Y-80987273D01*
X111378602Y-80989125D01*
X111290609Y-81120814D01*
X111290602Y-81120827D01*
X111230264Y-81266498D01*
X111230261Y-81266510D01*
X111199500Y-81421153D01*
X100302021Y-81421153D01*
X100333566Y-81377734D01*
X100343230Y-81358769D01*
X100343230Y-81358768D01*
X100415747Y-81216447D01*
X100415749Y-81216441D01*
X100471681Y-81044295D01*
X100471684Y-81044285D01*
X100474739Y-81025000D01*
X99544975Y-81025000D01*
X99580070Y-80989905D01*
X99626148Y-80910095D01*
X99650000Y-80821078D01*
X99650000Y-80728922D01*
X99626148Y-80639905D01*
X99580070Y-80560095D01*
X99544975Y-80525000D01*
X100474739Y-80525000D01*
X100471684Y-80505714D01*
X100471681Y-80505704D01*
X100415749Y-80333558D01*
X100415747Y-80333552D01*
X100333565Y-80172265D01*
X100227176Y-80025830D01*
X100099169Y-79897823D01*
X99952734Y-79791434D01*
X99791447Y-79709252D01*
X99791444Y-79709251D01*
X99619293Y-79653317D01*
X99440506Y-79625000D01*
X98650000Y-79625000D01*
X98650000Y-80425000D01*
X98150000Y-80425000D01*
X98150000Y-79625000D01*
X97359494Y-79625000D01*
X97180706Y-79653317D01*
X97008555Y-79709251D01*
X97008552Y-79709252D01*
X96847265Y-79791434D01*
X96700830Y-79897823D01*
X96572823Y-80025830D01*
X96466434Y-80172265D01*
X96384252Y-80333552D01*
X96384250Y-80333558D01*
X96328318Y-80505704D01*
X96328315Y-80505714D01*
X96325261Y-80525000D01*
X97255025Y-80525000D01*
X97219930Y-80560095D01*
X97173852Y-80639905D01*
X97150000Y-80728922D01*
X97150000Y-80821078D01*
X97173852Y-80910095D01*
X97219930Y-80989905D01*
X97255025Y-81025000D01*
X96325261Y-81025000D01*
X96328315Y-81044285D01*
X96328318Y-81044295D01*
X96384250Y-81216441D01*
X96384252Y-81216447D01*
X96466433Y-81377733D01*
X96531644Y-81467490D01*
X96555123Y-81533296D01*
X96539297Y-81601350D01*
X96489191Y-81650044D01*
X96458918Y-81661265D01*
X96334406Y-81689684D01*
X96334397Y-81689687D01*
X96079917Y-81778734D01*
X95837005Y-81895714D01*
X95608712Y-82039161D01*
X95397915Y-82207265D01*
X95212181Y-82393000D01*
X95150858Y-82426485D01*
X95081166Y-82421501D01*
X95025233Y-82379629D01*
X95000816Y-82314165D01*
X95000500Y-82305319D01*
X95000500Y-78151577D01*
X106249500Y-78151577D01*
X106249500Y-78348422D01*
X106280290Y-78542826D01*
X106341117Y-78730029D01*
X106398754Y-78843147D01*
X106430476Y-78905405D01*
X106546172Y-79064646D01*
X106685354Y-79203828D01*
X106844595Y-79319524D01*
X106910584Y-79353147D01*
X107019970Y-79408882D01*
X107019972Y-79408882D01*
X107019975Y-79408884D01*
X107120317Y-79441487D01*
X107207173Y-79469709D01*
X107401578Y-79500500D01*
X107401583Y-79500500D01*
X107598422Y-79500500D01*
X107792826Y-79469709D01*
X107980025Y-79408884D01*
X108155405Y-79319524D01*
X108314646Y-79203828D01*
X108453828Y-79064646D01*
X108569524Y-78905405D01*
X108658884Y-78730025D01*
X108719709Y-78542826D01*
X108734211Y-78451265D01*
X108750500Y-78348422D01*
X108750500Y-78151577D01*
X108719709Y-77957173D01*
X108658882Y-77769970D01*
X108569523Y-77594594D01*
X108540164Y-77554185D01*
X108453828Y-77435354D01*
X108314646Y-77296172D01*
X108155405Y-77180476D01*
X107980029Y-77091117D01*
X107792826Y-77030290D01*
X107598422Y-76999500D01*
X107598417Y-76999500D01*
X107401583Y-76999500D01*
X107401578Y-76999500D01*
X107207173Y-77030290D01*
X107019970Y-77091117D01*
X106844594Y-77180476D01*
X106753741Y-77246485D01*
X106685354Y-77296172D01*
X106685352Y-77296174D01*
X106685351Y-77296174D01*
X106546174Y-77435351D01*
X106546174Y-77435352D01*
X106546172Y-77435354D01*
X106496485Y-77503741D01*
X106430476Y-77594594D01*
X106341117Y-77769970D01*
X106280290Y-77957173D01*
X106249500Y-78151577D01*
X95000500Y-78151577D01*
X95000500Y-77096153D01*
X97599500Y-77096153D01*
X97599500Y-77253846D01*
X97630261Y-77408489D01*
X97630264Y-77408501D01*
X97690602Y-77554172D01*
X97690609Y-77554185D01*
X97778210Y-77685288D01*
X97778213Y-77685292D01*
X97889707Y-77796786D01*
X97889711Y-77796789D01*
X98020814Y-77884390D01*
X98020827Y-77884397D01*
X98166498Y-77944735D01*
X98166503Y-77944737D01*
X98321153Y-77975499D01*
X98321156Y-77975500D01*
X98321158Y-77975500D01*
X98478844Y-77975500D01*
X98478845Y-77975499D01*
X98633497Y-77944737D01*
X98779179Y-77884394D01*
X98910289Y-77796789D01*
X99021789Y-77685289D01*
X99109394Y-77554179D01*
X99169737Y-77408497D01*
X99200500Y-77253842D01*
X99200500Y-77096158D01*
X99200500Y-77096155D01*
X99200499Y-77096153D01*
X99187398Y-77030290D01*
X99169737Y-76941503D01*
X99155239Y-76906502D01*
X99109397Y-76795827D01*
X99109390Y-76795814D01*
X99021789Y-76664711D01*
X99021786Y-76664707D01*
X98910292Y-76553213D01*
X98910288Y-76553210D01*
X98779185Y-76465609D01*
X98779172Y-76465602D01*
X98633501Y-76405264D01*
X98633489Y-76405261D01*
X98478845Y-76374500D01*
X98478842Y-76374500D01*
X98321158Y-76374500D01*
X98321155Y-76374500D01*
X98166510Y-76405261D01*
X98166498Y-76405264D01*
X98020827Y-76465602D01*
X98020814Y-76465609D01*
X97889711Y-76553210D01*
X97889707Y-76553213D01*
X97778213Y-76664707D01*
X97778210Y-76664711D01*
X97690609Y-76795814D01*
X97690602Y-76795827D01*
X97630264Y-76941498D01*
X97630261Y-76941510D01*
X97599500Y-77096153D01*
X95000500Y-77096153D01*
X95000500Y-76057918D01*
X101562735Y-76057918D01*
X101562735Y-76215611D01*
X101593496Y-76370254D01*
X101593499Y-76370266D01*
X101653837Y-76515937D01*
X101653844Y-76515950D01*
X101741445Y-76647053D01*
X101741448Y-76647057D01*
X101852942Y-76758551D01*
X101852946Y-76758554D01*
X101984049Y-76846155D01*
X101984062Y-76846162D01*
X102063788Y-76879185D01*
X102129738Y-76906502D01*
X102284388Y-76937264D01*
X102284391Y-76937265D01*
X102284393Y-76937265D01*
X102442079Y-76937265D01*
X102442080Y-76937264D01*
X102596732Y-76906502D01*
X102742414Y-76846159D01*
X102773704Y-76825252D01*
X102874110Y-76758163D01*
X102940788Y-76737285D01*
X102943001Y-76737265D01*
X113097348Y-76737265D01*
X113164387Y-76756950D01*
X113166239Y-76758163D01*
X113176329Y-76764905D01*
X113176342Y-76764912D01*
X113322013Y-76825250D01*
X113322018Y-76825252D01*
X113476668Y-76856014D01*
X113476671Y-76856015D01*
X113476673Y-76856015D01*
X113634359Y-76856015D01*
X113634360Y-76856014D01*
X113789012Y-76825252D01*
X113934694Y-76764909D01*
X114065804Y-76677304D01*
X114177304Y-76565804D01*
X114264909Y-76434694D01*
X114325252Y-76289012D01*
X114356015Y-76134357D01*
X114356015Y-75976673D01*
X114356015Y-75976670D01*
X114356014Y-75976668D01*
X114336430Y-75878213D01*
X114325252Y-75822018D01*
X114287246Y-75730263D01*
X114264912Y-75676342D01*
X114264905Y-75676329D01*
X114177304Y-75545226D01*
X114177301Y-75545222D01*
X114065807Y-75433728D01*
X114065803Y-75433725D01*
X113934700Y-75346124D01*
X113934687Y-75346117D01*
X113789016Y-75285779D01*
X113789004Y-75285776D01*
X113634360Y-75255015D01*
X113634357Y-75255015D01*
X113476673Y-75255015D01*
X113476670Y-75255015D01*
X113322025Y-75285776D01*
X113322013Y-75285779D01*
X113176342Y-75346117D01*
X113176329Y-75346124D01*
X113045227Y-75433724D01*
X113020500Y-75458452D01*
X112979004Y-75499947D01*
X112917684Y-75533431D01*
X112891325Y-75536265D01*
X102943001Y-75536265D01*
X102875962Y-75516580D01*
X102874110Y-75515367D01*
X102742420Y-75427374D01*
X102742407Y-75427367D01*
X102596736Y-75367029D01*
X102596724Y-75367026D01*
X102442080Y-75336265D01*
X102442077Y-75336265D01*
X102284393Y-75336265D01*
X102284390Y-75336265D01*
X102129745Y-75367026D01*
X102129733Y-75367029D01*
X101984062Y-75427367D01*
X101984049Y-75427374D01*
X101852946Y-75514975D01*
X101852942Y-75514978D01*
X101741448Y-75626472D01*
X101741445Y-75626476D01*
X101653844Y-75757579D01*
X101653837Y-75757592D01*
X101593499Y-75903263D01*
X101593496Y-75903275D01*
X101562735Y-76057918D01*
X95000500Y-76057918D01*
X95000500Y-72596153D01*
X97599500Y-72596153D01*
X97599500Y-72753846D01*
X97630261Y-72908489D01*
X97630264Y-72908501D01*
X97690602Y-73054172D01*
X97690609Y-73054185D01*
X97778210Y-73185288D01*
X97778213Y-73185292D01*
X97889707Y-73296786D01*
X97889711Y-73296789D01*
X98020814Y-73384390D01*
X98020827Y-73384397D01*
X98144997Y-73435829D01*
X98166503Y-73444737D01*
X98321153Y-73475499D01*
X98321156Y-73475500D01*
X98321158Y-73475500D01*
X98478844Y-73475500D01*
X98478845Y-73475499D01*
X98633497Y-73444737D01*
X98779179Y-73384394D01*
X98910289Y-73296789D01*
X99021789Y-73185289D01*
X99109394Y-73054179D01*
X99169737Y-72908497D01*
X99171308Y-72900598D01*
X106723822Y-72900598D01*
X108466050Y-72900598D01*
X108466050Y-71182102D01*
X106723822Y-71182102D01*
X106723822Y-72900598D01*
X99171308Y-72900598D01*
X99200500Y-72753842D01*
X99200500Y-72596158D01*
X99200500Y-72596155D01*
X99200499Y-72596153D01*
X99169738Y-72441510D01*
X99169737Y-72441503D01*
X99169735Y-72441498D01*
X99109397Y-72295827D01*
X99109390Y-72295814D01*
X99021789Y-72164711D01*
X99021786Y-72164707D01*
X98910292Y-72053213D01*
X98910288Y-72053210D01*
X98779185Y-71965609D01*
X98779172Y-71965602D01*
X98633501Y-71905264D01*
X98633489Y-71905261D01*
X98478845Y-71874500D01*
X98478842Y-71874500D01*
X98321158Y-71874500D01*
X98321155Y-71874500D01*
X98166510Y-71905261D01*
X98166498Y-71905264D01*
X98020827Y-71965602D01*
X98020814Y-71965609D01*
X97889711Y-72053210D01*
X97889707Y-72053213D01*
X97778213Y-72164707D01*
X97778210Y-72164711D01*
X97690609Y-72295814D01*
X97690602Y-72295827D01*
X97630264Y-72441498D01*
X97630261Y-72441510D01*
X97599500Y-72596153D01*
X95000500Y-72596153D01*
X95000500Y-67194681D01*
X95020185Y-67127642D01*
X95072989Y-67081887D01*
X95142147Y-67071943D01*
X95205703Y-67100968D01*
X95212181Y-67107000D01*
X95397915Y-67292734D01*
X95608711Y-67460838D01*
X95837003Y-67604284D01*
X96079921Y-67721267D01*
X96257353Y-67783353D01*
X96334397Y-67810312D01*
X96334405Y-67810315D01*
X96334408Y-67810315D01*
X96334409Y-67810316D01*
X96597268Y-67870312D01*
X96597276Y-67870312D01*
X96597281Y-67870314D01*
X96689605Y-67880716D01*
X96759741Y-67888618D01*
X96824154Y-67915684D01*
X96863709Y-67973279D01*
X96865847Y-68043116D01*
X96829889Y-68103022D01*
X96818743Y-68112156D01*
X96700826Y-68197827D01*
X96572823Y-68325830D01*
X96466434Y-68472265D01*
X96384252Y-68633552D01*
X96384250Y-68633558D01*
X96328318Y-68805704D01*
X96328315Y-68805714D01*
X96325261Y-68825000D01*
X97255025Y-68825000D01*
X97219930Y-68860095D01*
X97173852Y-68939905D01*
X97150000Y-69028922D01*
X97150000Y-69121078D01*
X97173852Y-69210095D01*
X97219930Y-69289905D01*
X97255025Y-69325000D01*
X96325261Y-69325000D01*
X96328315Y-69344285D01*
X96328318Y-69344295D01*
X96384250Y-69516441D01*
X96384252Y-69516447D01*
X96466434Y-69677734D01*
X96572823Y-69824169D01*
X96700830Y-69952176D01*
X96847265Y-70058565D01*
X97008552Y-70140747D01*
X97008555Y-70140748D01*
X97180706Y-70196682D01*
X97359494Y-70225000D01*
X98150000Y-70225000D01*
X98150000Y-69425000D01*
X98650000Y-69425000D01*
X98650000Y-70225000D01*
X99440506Y-70225000D01*
X99619293Y-70196682D01*
X99791444Y-70140748D01*
X99791447Y-70140747D01*
X99952734Y-70058565D01*
X100099169Y-69952176D01*
X100227176Y-69824169D01*
X100333565Y-69677734D01*
X100415747Y-69516447D01*
X100415749Y-69516441D01*
X100471681Y-69344295D01*
X100471684Y-69344285D01*
X100474739Y-69325000D01*
X99544975Y-69325000D01*
X99580070Y-69289905D01*
X99626148Y-69210095D01*
X99650000Y-69121078D01*
X99650000Y-69028922D01*
X99626148Y-68939905D01*
X99580070Y-68860095D01*
X99544975Y-68825000D01*
X100474739Y-68825000D01*
X100471684Y-68805714D01*
X100471681Y-68805704D01*
X100415749Y-68633558D01*
X100415747Y-68633552D01*
X100333565Y-68472265D01*
X100227176Y-68325830D01*
X100099169Y-68197823D01*
X99952734Y-68091434D01*
X99791447Y-68009252D01*
X99791444Y-68009251D01*
X99619293Y-67953317D01*
X99440506Y-67925000D01*
X98650000Y-67925000D01*
X98650000Y-68725000D01*
X98150000Y-68725000D01*
X98150000Y-67964947D01*
X98003498Y-67919412D01*
X97989449Y-67910067D01*
X97973264Y-67905315D01*
X97960964Y-67891120D01*
X97945322Y-67880716D01*
X97938555Y-67865259D01*
X97927509Y-67852511D01*
X97924835Y-67833920D01*
X97917302Y-67816711D01*
X97919965Y-67800050D01*
X97917565Y-67783353D01*
X97925368Y-67766266D01*
X97928334Y-67747718D01*
X97939581Y-67735143D01*
X97946590Y-67719797D01*
X97967844Y-67703545D01*
X97974915Y-67695641D01*
X97980034Y-67694224D01*
X97986502Y-67689280D01*
X98162991Y-67604287D01*
X98162991Y-67604286D01*
X98162997Y-67604284D01*
X98391289Y-67460838D01*
X98602085Y-67292734D01*
X98792734Y-67102085D01*
X98960838Y-66891289D01*
X99104284Y-66662997D01*
X99221267Y-66420079D01*
X99310316Y-66165591D01*
X99370312Y-65902732D01*
X99400500Y-65634809D01*
X99400500Y-65365191D01*
X99370312Y-65097268D01*
X99310316Y-64834409D01*
X99221267Y-64579921D01*
X99104284Y-64337003D01*
X98960838Y-64108711D01*
X98792734Y-63897915D01*
X98607000Y-63712181D01*
X98573515Y-63650858D01*
X98578499Y-63581166D01*
X98620371Y-63525233D01*
X98685835Y-63500816D01*
X98694681Y-63500500D01*
X127805319Y-63500500D01*
X127872358Y-63520185D01*
G37*
%TD.AperFunction*%
M02*
