%TF.GenerationSoftware,KiCad,Pcbnew,9.0.3*%
%TF.CreationDate,2025-08-08T09:11:37+05:30*%
%TF.ProjectId,US-UART(Converter),55532d55-4152-4542-9843-6f6e76657274,rev?*%
%TF.SameCoordinates,Original*%
%TF.FileFunction,Copper,L1,Top*%
%TF.FilePolarity,Positive*%
%FSLAX46Y46*%
G04 Gerber Fmt 4.6, Leading zero omitted, Abs format (unit mm)*
G04 Created by KiCad (PCBNEW 9.0.3) date 2025-08-08 09:11:37*
%MOMM*%
%LPD*%
G01*
G04 APERTURE LIST*
G04 Aperture macros list*
%AMRoundRect*
0 Rectangle with rounded corners*
0 $1 Rounding radius*
0 $2 $3 $4 $5 $6 $7 $8 $9 X,Y pos of 4 corners*
0 Add a 4 corners polygon primitive as box body*
4,1,4,$2,$3,$4,$5,$6,$7,$8,$9,$2,$3,0*
0 Add four circle primitives for the rounded corners*
1,1,$1+$1,$2,$3*
1,1,$1+$1,$4,$5*
1,1,$1+$1,$6,$7*
1,1,$1+$1,$8,$9*
0 Add four rect primitives between the rounded corners*
20,1,$1+$1,$2,$3,$4,$5,0*
20,1,$1+$1,$4,$5,$6,$7,0*
20,1,$1+$1,$6,$7,$8,$9,0*
20,1,$1+$1,$8,$9,$2,$3,0*%
G04 Aperture macros list end*
%TA.AperFunction,FiducialPad,Global*%
%ADD10C,3.800000*%
%TD*%
%TA.AperFunction,ComponentPad*%
%ADD11C,1.500000*%
%TD*%
%TA.AperFunction,ComponentPad*%
%ADD12R,1.700000X1.700000*%
%TD*%
%TA.AperFunction,ComponentPad*%
%ADD13C,1.700000*%
%TD*%
%TA.AperFunction,SMDPad,CuDef*%
%ADD14RoundRect,0.150000X-0.825000X-0.150000X0.825000X-0.150000X0.825000X0.150000X-0.825000X0.150000X0*%
%TD*%
%TA.AperFunction,ComponentPad*%
%ADD15R,2.030000X1.730000*%
%TD*%
%TA.AperFunction,ComponentPad*%
%ADD16O,2.030000X1.730000*%
%TD*%
%TA.AperFunction,SMDPad,CuDef*%
%ADD17RoundRect,0.300000X0.700000X0.300000X-0.700000X0.300000X-0.700000X-0.300000X0.700000X-0.300000X0*%
%TD*%
%TA.AperFunction,HeatsinkPad*%
%ADD18O,3.200000X1.300000*%
%TD*%
%TA.AperFunction,SMDPad,CuDef*%
%ADD19RoundRect,0.100000X0.217500X0.100000X-0.217500X0.100000X-0.217500X-0.100000X0.217500X-0.100000X0*%
%TD*%
%TA.AperFunction,SMDPad,CuDef*%
%ADD20RoundRect,0.100000X-0.217500X-0.100000X0.217500X-0.100000X0.217500X0.100000X-0.217500X0.100000X0*%
%TD*%
%TA.AperFunction,ViaPad*%
%ADD21C,0.600000*%
%TD*%
%TA.AperFunction,Conductor*%
%ADD22C,0.200000*%
%TD*%
G04 APERTURE END LIST*
D10*
X97000000Y-65500000D03*
X97000000Y-84000000D03*
X129500000Y-84000000D03*
D11*
X107500000Y-78250000D03*
X107500000Y-83150000D03*
D12*
X105500000Y-66500000D03*
D13*
X108040000Y-66500000D03*
D10*
X129500000Y-65500000D03*
D14*
X115522500Y-69135000D03*
X115522500Y-70405000D03*
X115522500Y-71675000D03*
X115522500Y-72945000D03*
X115522500Y-74215000D03*
X115522500Y-75485000D03*
X115522500Y-76755000D03*
X115522500Y-78025000D03*
X120472500Y-78025000D03*
X120472500Y-76755000D03*
X120472500Y-75485000D03*
X120472500Y-74215000D03*
X120472500Y-72945000D03*
X120472500Y-71675000D03*
X120472500Y-70405000D03*
X120472500Y-69135000D03*
D15*
X127500000Y-71420000D03*
D16*
X127500000Y-73960000D03*
X127500000Y-76500000D03*
X127500000Y-79040000D03*
D17*
X101000000Y-78425000D03*
X101000000Y-75925000D03*
X101000000Y-73925000D03*
X101000000Y-71425000D03*
D18*
X98400000Y-80775000D03*
X98400000Y-69075000D03*
D19*
X105740000Y-84850000D03*
X104925000Y-84850000D03*
D20*
X107145000Y-72870000D03*
X107960000Y-72870000D03*
D21*
X109000103Y-72899766D03*
X114000000Y-69500000D03*
X113500000Y-78500000D03*
X112000000Y-81500000D03*
X113555515Y-76055515D03*
X102363235Y-76136765D03*
D22*
X108757000Y-76755000D02*
X115522500Y-76755000D01*
X107024000Y-75024000D02*
X107500000Y-75500000D01*
X107500000Y-75500000D02*
X107500000Y-78012000D01*
X99699000Y-74671944D02*
X100051056Y-75024000D01*
X107500000Y-78012000D02*
X108757000Y-76755000D01*
X99699000Y-73376056D02*
X99699000Y-74671944D01*
X100205056Y-72870000D02*
X99699000Y-73376056D01*
X100051056Y-75024000D02*
X107024000Y-75024000D01*
X107145000Y-72870000D02*
X100205056Y-72870000D01*
X108970337Y-72870000D02*
X109000103Y-72899766D01*
X107960000Y-72870000D02*
X108970337Y-72870000D01*
X114365000Y-69135000D02*
X114000000Y-69500000D01*
X115522500Y-69135000D02*
X114365000Y-69135000D01*
X129000000Y-66500000D02*
X129000000Y-75000000D01*
X128500000Y-66000000D02*
X129000000Y-66500000D01*
X113000000Y-66000000D02*
X128500000Y-66000000D01*
X112500000Y-71000000D02*
X112500000Y-66500000D01*
X112500000Y-66500000D02*
X113000000Y-66000000D01*
X129000000Y-75000000D02*
X127500000Y-76500000D01*
X113175000Y-71675000D02*
X112500000Y-71000000D01*
X115522500Y-71675000D02*
X113175000Y-71675000D01*
X123000000Y-78580000D02*
X123460000Y-79040000D01*
X122500000Y-67500000D02*
X123000000Y-68000000D01*
X116000000Y-67500000D02*
X122500000Y-67500000D01*
X115522500Y-67977500D02*
X116000000Y-67500000D01*
X123460000Y-79040000D02*
X127500000Y-79040000D01*
X115522500Y-69135000D02*
X115522500Y-67977500D01*
X123000000Y-68000000D02*
X123000000Y-78580000D01*
X125345990Y-67000000D02*
X126000000Y-67654010D01*
X113500000Y-67000000D02*
X125345990Y-67000000D01*
X126960000Y-74500000D02*
X127500000Y-73960000D01*
X113000000Y-70000000D02*
X113000000Y-67500000D01*
X113405000Y-70405000D02*
X113000000Y-70000000D01*
X126000000Y-67654010D02*
X126000000Y-74500000D01*
X126000000Y-74500000D02*
X126960000Y-74500000D01*
X115522500Y-70405000D02*
X113405000Y-70405000D01*
X113000000Y-67500000D02*
X113500000Y-67000000D01*
X99216073Y-84850000D02*
X104925000Y-84850000D01*
X98400000Y-84033927D02*
X99216073Y-84850000D01*
X98400000Y-80775000D02*
X98400000Y-84033927D01*
X107500000Y-84500000D02*
X107500000Y-81500000D01*
X107150000Y-84850000D02*
X107500000Y-84500000D01*
X105740000Y-84850000D02*
X107150000Y-84850000D01*
X113975000Y-78025000D02*
X113500000Y-78500000D01*
X115522500Y-78025000D02*
X113975000Y-78025000D01*
X107500000Y-81500000D02*
X112000000Y-81500000D01*
X110445000Y-72945000D02*
X115522500Y-72945000D01*
X105500000Y-68000000D02*
X110445000Y-72945000D01*
X105500000Y-66500000D02*
X105500000Y-68000000D01*
X117500000Y-69500000D02*
X117865000Y-69135000D01*
X117500000Y-79500000D02*
X117500000Y-69500000D01*
X117865000Y-69135000D02*
X120472500Y-69135000D01*
X113500000Y-79500000D02*
X117500000Y-79500000D01*
X101000000Y-78425000D02*
X112425000Y-78425000D01*
X112425000Y-78425000D02*
X113500000Y-79500000D01*
X114126030Y-75485000D02*
X115522500Y-75485000D01*
X113555515Y-76055515D02*
X114126030Y-75485000D01*
X108809562Y-73500000D02*
X113832501Y-73500000D01*
X114547501Y-74215000D02*
X115522500Y-74215000D01*
X108758562Y-73449000D02*
X108809562Y-73500000D01*
X106241438Y-73449000D02*
X108758562Y-73449000D01*
X106190438Y-73500000D02*
X106241438Y-73449000D01*
X113832501Y-73500000D02*
X114547501Y-74215000D01*
X101425000Y-73500000D02*
X106190438Y-73500000D01*
X101000000Y-73925000D02*
X101425000Y-73500000D01*
X102151470Y-75925000D02*
X102363235Y-76136765D01*
X101000000Y-75925000D02*
X102151470Y-75925000D01*
X106714999Y-71425000D02*
X107960000Y-72670001D01*
X101000000Y-71425000D02*
X106714999Y-71425000D01*
X107960000Y-72670001D02*
X107960000Y-72870000D01*
X97500000Y-69975000D02*
X98400000Y-69075000D01*
X97500000Y-79875000D02*
X97500000Y-69975000D01*
X98400000Y-80775000D02*
X97500000Y-79875000D01*
X98650000Y-69075000D02*
X98400000Y-69075000D01*
X101000000Y-71425000D02*
X98650000Y-69075000D01*
X101700000Y-71425000D02*
X101575000Y-71425000D01*
X101575000Y-71425000D02*
X101500000Y-71500000D01*
%TA.AperFunction,Conductor*%
G36*
X127872358Y-63520185D02*
G01*
X127918113Y-63572989D01*
X127928057Y-63642147D01*
X127899032Y-63705703D01*
X127893000Y-63712181D01*
X127707265Y-63897915D01*
X127539161Y-64108712D01*
X127395714Y-64337005D01*
X127278734Y-64579917D01*
X127189687Y-64834397D01*
X127189684Y-64834405D01*
X127129688Y-65097268D01*
X127129686Y-65097280D01*
X127108041Y-65289384D01*
X127080974Y-65353798D01*
X127023379Y-65393353D01*
X126984821Y-65399500D01*
X113086670Y-65399500D01*
X113086654Y-65399499D01*
X113079058Y-65399499D01*
X112920943Y-65399499D01*
X112844579Y-65419961D01*
X112768214Y-65440423D01*
X112768209Y-65440426D01*
X112631290Y-65519475D01*
X112631282Y-65519481D01*
X112124217Y-66026546D01*
X112124214Y-66026548D01*
X112124215Y-66026549D01*
X112019478Y-66131285D01*
X111996124Y-66171737D01*
X111989185Y-66183757D01*
X111940423Y-66268215D01*
X111899499Y-66420943D01*
X111899499Y-66420945D01*
X111899499Y-66589046D01*
X111899500Y-66589059D01*
X111899500Y-70913330D01*
X111899499Y-70913348D01*
X111899499Y-71079054D01*
X111899498Y-71079054D01*
X111940424Y-71231789D01*
X111940425Y-71231790D01*
X111959369Y-71264601D01*
X111959370Y-71264602D01*
X112019477Y-71368712D01*
X112019481Y-71368717D01*
X112138349Y-71487585D01*
X112138355Y-71487590D01*
X112694478Y-72043713D01*
X112694480Y-72043716D01*
X112783584Y-72132820D01*
X112817068Y-72194141D01*
X112817067Y-72194142D01*
X112817068Y-72194143D01*
X112812084Y-72263834D01*
X112784347Y-72300886D01*
X112772448Y-72316782D01*
X112770212Y-72319768D01*
X112740315Y-72330918D01*
X112704749Y-72344184D01*
X112695902Y-72344500D01*
X110745097Y-72344500D01*
X110678058Y-72324815D01*
X110657416Y-72308181D01*
X106401040Y-68051805D01*
X106367555Y-67990482D01*
X106372539Y-67920790D01*
X106414411Y-67864857D01*
X106450633Y-67847924D01*
X106450215Y-67846802D01*
X106592328Y-67793797D01*
X106592327Y-67793797D01*
X106592331Y-67793796D01*
X106707546Y-67707546D01*
X106793796Y-67592331D01*
X106842810Y-67460916D01*
X106884681Y-67404984D01*
X106950145Y-67380566D01*
X107018418Y-67395417D01*
X107046673Y-67416569D01*
X107160213Y-67530109D01*
X107332179Y-67655048D01*
X107332181Y-67655049D01*
X107332184Y-67655051D01*
X107521588Y-67751557D01*
X107723757Y-67817246D01*
X107933713Y-67850500D01*
X107933714Y-67850500D01*
X108146286Y-67850500D01*
X108146287Y-67850500D01*
X108356243Y-67817246D01*
X108558412Y-67751557D01*
X108747816Y-67655051D01*
X108817690Y-67604285D01*
X108919786Y-67530109D01*
X108919788Y-67530106D01*
X108919792Y-67530104D01*
X109070104Y-67379792D01*
X109070106Y-67379788D01*
X109070109Y-67379786D01*
X109195048Y-67207820D01*
X109195047Y-67207820D01*
X109195051Y-67207816D01*
X109291557Y-67018412D01*
X109357246Y-66816243D01*
X109390500Y-66606287D01*
X109390500Y-66393713D01*
X109357246Y-66183757D01*
X109291557Y-65981588D01*
X109195051Y-65792184D01*
X109195049Y-65792181D01*
X109195048Y-65792179D01*
X109070109Y-65620213D01*
X108919786Y-65469890D01*
X108747820Y-65344951D01*
X108558414Y-65248444D01*
X108558413Y-65248443D01*
X108558412Y-65248443D01*
X108356243Y-65182754D01*
X108356241Y-65182753D01*
X108356240Y-65182753D01*
X108194957Y-65157208D01*
X108146287Y-65149500D01*
X107933713Y-65149500D01*
X107885042Y-65157208D01*
X107723760Y-65182753D01*
X107521585Y-65248444D01*
X107332179Y-65344951D01*
X107160215Y-65469889D01*
X107046673Y-65583431D01*
X106985350Y-65616915D01*
X106915658Y-65611931D01*
X106859725Y-65570059D01*
X106842810Y-65539082D01*
X106793797Y-65407671D01*
X106793793Y-65407664D01*
X106707547Y-65292455D01*
X106707544Y-65292452D01*
X106592335Y-65206206D01*
X106592328Y-65206202D01*
X106457482Y-65155908D01*
X106457483Y-65155908D01*
X106397883Y-65149501D01*
X106397881Y-65149500D01*
X106397873Y-65149500D01*
X106397864Y-65149500D01*
X104602129Y-65149500D01*
X104602123Y-65149501D01*
X104542516Y-65155908D01*
X104407671Y-65206202D01*
X104407664Y-65206206D01*
X104292455Y-65292452D01*
X104292452Y-65292455D01*
X104206206Y-65407664D01*
X104206202Y-65407671D01*
X104155908Y-65542517D01*
X104149501Y-65602116D01*
X104149500Y-65602135D01*
X104149500Y-67397870D01*
X104149501Y-67397876D01*
X104155908Y-67457483D01*
X104206202Y-67592328D01*
X104206206Y-67592335D01*
X104292452Y-67707544D01*
X104292455Y-67707547D01*
X104407664Y-67793793D01*
X104407671Y-67793797D01*
X104451951Y-67810312D01*
X104542517Y-67844091D01*
X104602127Y-67850500D01*
X104775499Y-67850499D01*
X104842538Y-67870183D01*
X104888293Y-67922987D01*
X104899499Y-67974499D01*
X104899499Y-68079054D01*
X104899498Y-68079054D01*
X104940423Y-68231786D01*
X104953543Y-68254509D01*
X104953544Y-68254511D01*
X105019477Y-68368712D01*
X105019481Y-68368717D01*
X105138349Y-68487585D01*
X105138355Y-68487590D01*
X107621186Y-70970421D01*
X107654671Y-71031744D01*
X107649687Y-71101436D01*
X107607815Y-71157369D01*
X107542351Y-71181786D01*
X107533505Y-71182102D01*
X106723822Y-71182102D01*
X106723822Y-72121534D01*
X106719312Y-72136892D01*
X106719791Y-72152895D01*
X106709669Y-72169730D01*
X106704137Y-72188573D01*
X106691623Y-72199747D01*
X106683791Y-72212777D01*
X106660079Y-72227918D01*
X106654683Y-72232738D01*
X106651023Y-72234543D01*
X106624659Y-72245464D01*
X106617045Y-72251306D01*
X106606104Y-72256704D01*
X106583224Y-72260695D01*
X106561568Y-72269069D01*
X106551243Y-72269500D01*
X102527047Y-72269500D01*
X102460008Y-72249815D01*
X102414253Y-72197011D01*
X102404309Y-72127853D01*
X102422051Y-72079531D01*
X102425336Y-72074302D01*
X102484877Y-71904141D01*
X102499999Y-71769930D01*
X102500000Y-71769930D01*
X102500000Y-71675000D01*
X99500000Y-71675000D01*
X99500000Y-71769930D01*
X99515122Y-71904141D01*
X99574663Y-72074301D01*
X99670577Y-72226948D01*
X99747043Y-72303414D01*
X99751380Y-72311357D01*
X99758627Y-72316782D01*
X99767863Y-72341543D01*
X99780528Y-72364737D01*
X99779882Y-72373764D01*
X99783046Y-72382246D01*
X99777429Y-72408069D01*
X99775544Y-72434429D01*
X99769726Y-72443480D01*
X99768196Y-72450519D01*
X99747045Y-72478774D01*
X99724538Y-72501282D01*
X99412181Y-72813639D01*
X99350858Y-72847124D01*
X99281166Y-72842140D01*
X99225233Y-72800268D01*
X99200816Y-72734804D01*
X99200500Y-72725958D01*
X99200500Y-72596155D01*
X99200499Y-72596153D01*
X99188256Y-72534602D01*
X99169737Y-72441503D01*
X99155888Y-72408069D01*
X99109397Y-72295827D01*
X99109390Y-72295814D01*
X99021789Y-72164711D01*
X99021786Y-72164707D01*
X98910292Y-72053213D01*
X98910288Y-72053210D01*
X98779185Y-71965609D01*
X98779172Y-71965602D01*
X98633501Y-71905264D01*
X98633489Y-71905261D01*
X98478845Y-71874500D01*
X98478842Y-71874500D01*
X98321158Y-71874500D01*
X98321155Y-71874500D01*
X98166510Y-71905261D01*
X98166498Y-71905264D01*
X98020827Y-71965602D01*
X98020814Y-71965609D01*
X97889711Y-72053210D01*
X97889707Y-72053213D01*
X97778213Y-72164707D01*
X97778210Y-72164711D01*
X97690609Y-72295814D01*
X97690602Y-72295827D01*
X97630264Y-72441498D01*
X97630261Y-72441510D01*
X97599500Y-72596153D01*
X97599500Y-72753846D01*
X97630261Y-72908489D01*
X97630264Y-72908501D01*
X97690602Y-73054172D01*
X97690609Y-73054185D01*
X97778210Y-73185288D01*
X97778213Y-73185292D01*
X97889707Y-73296786D01*
X97889711Y-73296789D01*
X98020814Y-73384390D01*
X98020827Y-73384397D01*
X98153884Y-73439510D01*
X98166503Y-73444737D01*
X98321153Y-73475499D01*
X98321156Y-73475500D01*
X98321158Y-73475500D01*
X98478844Y-73475500D01*
X98478845Y-73475499D01*
X98633497Y-73444737D01*
X98779179Y-73384394D01*
X98905608Y-73299917D01*
X98915305Y-73296880D01*
X98922986Y-73290225D01*
X98948087Y-73286615D01*
X98972285Y-73279039D01*
X98982085Y-73281727D01*
X98992144Y-73280281D01*
X99015208Y-73290813D01*
X99039666Y-73297523D01*
X99046458Y-73305084D01*
X99055700Y-73309305D01*
X99069408Y-73330635D01*
X99086356Y-73349502D01*
X99088987Y-73361097D01*
X99093476Y-73368082D01*
X99098498Y-73403013D01*
X99098499Y-73403017D01*
X99098499Y-73455113D01*
X99098499Y-73455115D01*
X99098500Y-73465109D01*
X99098500Y-74585274D01*
X99098499Y-74585292D01*
X99098499Y-74750998D01*
X99098498Y-74750998D01*
X99139423Y-74903729D01*
X99149362Y-74920943D01*
X99149363Y-74920946D01*
X99218475Y-75040653D01*
X99218481Y-75040661D01*
X99337349Y-75159529D01*
X99337355Y-75159534D01*
X99487774Y-75309953D01*
X99521259Y-75371276D01*
X99517137Y-75438581D01*
X99514634Y-75445735D01*
X99514630Y-75445750D01*
X99499500Y-75580039D01*
X99499500Y-76269960D01*
X99514630Y-76404249D01*
X99514631Y-76404254D01*
X99574211Y-76574523D01*
X99670184Y-76727262D01*
X99797738Y-76854816D01*
X99836521Y-76879185D01*
X99935710Y-76941510D01*
X99950478Y-76950789D01*
X100112740Y-77007567D01*
X100120745Y-77010368D01*
X100120750Y-77010369D01*
X100211246Y-77020565D01*
X100255040Y-77025499D01*
X100255043Y-77025500D01*
X100255046Y-77025500D01*
X101744957Y-77025500D01*
X101744958Y-77025499D01*
X101812104Y-77017934D01*
X101879249Y-77010369D01*
X101879252Y-77010368D01*
X101879255Y-77010368D01*
X102049522Y-76950789D01*
X102080569Y-76931280D01*
X102147803Y-76912279D01*
X102170727Y-76914655D01*
X102241908Y-76928814D01*
X102284391Y-76937265D01*
X102284393Y-76937265D01*
X102442079Y-76937265D01*
X102442080Y-76937264D01*
X102596732Y-76906502D01*
X102742414Y-76846159D01*
X102873524Y-76758554D01*
X102985024Y-76647054D01*
X103072629Y-76515944D01*
X103132972Y-76370262D01*
X103163735Y-76215607D01*
X103163735Y-76057923D01*
X103163735Y-76057920D01*
X103163734Y-76057918D01*
X103150166Y-75989707D01*
X103132972Y-75903268D01*
X103122593Y-75878210D01*
X103088521Y-75795952D01*
X103081052Y-75726483D01*
X103112327Y-75664004D01*
X103172416Y-75628352D01*
X103203082Y-75624500D01*
X106723903Y-75624500D01*
X106753343Y-75633144D01*
X106783330Y-75639668D01*
X106788345Y-75643422D01*
X106790942Y-75644185D01*
X106811584Y-75660819D01*
X106863181Y-75712416D01*
X106896666Y-75773739D01*
X106899500Y-75800097D01*
X106899500Y-77077403D01*
X106879815Y-77144442D01*
X106848386Y-77177721D01*
X106685352Y-77296173D01*
X106546174Y-77435351D01*
X106546174Y-77435352D01*
X106546172Y-77435354D01*
X106518721Y-77473137D01*
X106430476Y-77594594D01*
X106347831Y-77756795D01*
X106299856Y-77807591D01*
X106237346Y-77824500D01*
X102525124Y-77824500D01*
X102458085Y-77804815D01*
X102420130Y-77766472D01*
X102397379Y-77730264D01*
X102329816Y-77622738D01*
X102202262Y-77495184D01*
X102049523Y-77399211D01*
X101879254Y-77339631D01*
X101879249Y-77339630D01*
X101744960Y-77324500D01*
X101744954Y-77324500D01*
X100255046Y-77324500D01*
X100255039Y-77324500D01*
X100120750Y-77339630D01*
X100120745Y-77339631D01*
X99950476Y-77399211D01*
X99797737Y-77495184D01*
X99670184Y-77622737D01*
X99574211Y-77775476D01*
X99514631Y-77945745D01*
X99514630Y-77945750D01*
X99499500Y-78080039D01*
X99499500Y-78769960D01*
X99514630Y-78904249D01*
X99514631Y-78904254D01*
X99574211Y-79074523D01*
X99655459Y-79203828D01*
X99670184Y-79227262D01*
X99797738Y-79354816D01*
X99883783Y-79408882D01*
X99946201Y-79448102D01*
X99950478Y-79450789D01*
X100092544Y-79500500D01*
X100120745Y-79510368D01*
X100120750Y-79510369D01*
X100211246Y-79520565D01*
X100255040Y-79525499D01*
X100255043Y-79525500D01*
X100255046Y-79525500D01*
X101744957Y-79525500D01*
X101744958Y-79525499D01*
X101812104Y-79517934D01*
X101879249Y-79510369D01*
X101879252Y-79510368D01*
X101879255Y-79510368D01*
X102049522Y-79450789D01*
X102202262Y-79354816D01*
X102329816Y-79227262D01*
X102420130Y-79083527D01*
X102472465Y-79037237D01*
X102525124Y-79025500D01*
X106455664Y-79025500D01*
X106522703Y-79045185D01*
X106543345Y-79061819D01*
X106546172Y-79064646D01*
X106685354Y-79203828D01*
X106844595Y-79319524D01*
X106910584Y-79353147D01*
X107019970Y-79408882D01*
X107019972Y-79408882D01*
X107019975Y-79408884D01*
X107120317Y-79441487D01*
X107207173Y-79469709D01*
X107401578Y-79500500D01*
X107401583Y-79500500D01*
X107598422Y-79500500D01*
X107792826Y-79469709D01*
X107851055Y-79450789D01*
X107980025Y-79408884D01*
X108155405Y-79319524D01*
X108314646Y-79203828D01*
X108453828Y-79064646D01*
X108453828Y-79064645D01*
X108456655Y-79061819D01*
X108517978Y-79028334D01*
X108544336Y-79025500D01*
X112124903Y-79025500D01*
X112191942Y-79045185D01*
X112212583Y-79061818D01*
X113131284Y-79980520D01*
X113131286Y-79980521D01*
X113131290Y-79980524D01*
X113209764Y-80025830D01*
X113268216Y-80059577D01*
X113420943Y-80100501D01*
X113420945Y-80100501D01*
X113586654Y-80100501D01*
X113586670Y-80100500D01*
X117579055Y-80100500D01*
X117579057Y-80100500D01*
X117731784Y-80059577D01*
X117868716Y-79980520D01*
X117980520Y-79868716D01*
X118059577Y-79731784D01*
X118100500Y-79579057D01*
X118100500Y-69859500D01*
X118120185Y-69792461D01*
X118172989Y-69746706D01*
X118224500Y-69735500D01*
X118981593Y-69735500D01*
X119048632Y-69755185D01*
X119094387Y-69807989D01*
X119104331Y-69877147D01*
X119088325Y-69922620D01*
X119045757Y-69994599D01*
X119045754Y-69994606D01*
X118999902Y-70152426D01*
X118999901Y-70152432D01*
X118997000Y-70189298D01*
X118997000Y-70620701D01*
X118999901Y-70657567D01*
X118999902Y-70657573D01*
X119045754Y-70815393D01*
X119045755Y-70815396D01*
X119129417Y-70956862D01*
X119134202Y-70963031D01*
X119131756Y-70964927D01*
X119158357Y-71013642D01*
X119153373Y-71083334D01*
X119132569Y-71115703D01*
X119134202Y-71116969D01*
X119129417Y-71123137D01*
X119045756Y-71264602D01*
X119045754Y-71264606D01*
X118999902Y-71422426D01*
X118999901Y-71422432D01*
X118997000Y-71459298D01*
X118997000Y-71890701D01*
X118999901Y-71927567D01*
X118999902Y-71927573D01*
X119045754Y-72085393D01*
X119045755Y-72085396D01*
X119129417Y-72226862D01*
X119134202Y-72233031D01*
X119131756Y-72234927D01*
X119158357Y-72283642D01*
X119153373Y-72353334D01*
X119132569Y-72385703D01*
X119134202Y-72386969D01*
X119129417Y-72393137D01*
X119045755Y-72534603D01*
X119045754Y-72534606D01*
X118999902Y-72692426D01*
X118999901Y-72692432D01*
X118997000Y-72729298D01*
X118997000Y-73160701D01*
X118999901Y-73197567D01*
X118999902Y-73197573D01*
X119045754Y-73355393D01*
X119045755Y-73355396D01*
X119045756Y-73355398D01*
X119053257Y-73368082D01*
X119129417Y-73496862D01*
X119134202Y-73503031D01*
X119131756Y-73504927D01*
X119158357Y-73553642D01*
X119153373Y-73623334D01*
X119132569Y-73655703D01*
X119134202Y-73656969D01*
X119129417Y-73663137D01*
X119045755Y-73804603D01*
X119045754Y-73804606D01*
X118999902Y-73962426D01*
X118999901Y-73962432D01*
X118997000Y-73999298D01*
X118997000Y-74430701D01*
X118999901Y-74467567D01*
X118999902Y-74467573D01*
X119045754Y-74625393D01*
X119045755Y-74625396D01*
X119045756Y-74625398D01*
X119063431Y-74655285D01*
X119129417Y-74766862D01*
X119134202Y-74773031D01*
X119131756Y-74774927D01*
X119158357Y-74823642D01*
X119153373Y-74893334D01*
X119132569Y-74925703D01*
X119134202Y-74926969D01*
X119129417Y-74933137D01*
X119045755Y-75074603D01*
X119045754Y-75074606D01*
X118999902Y-75232426D01*
X118999901Y-75232432D01*
X118997000Y-75269298D01*
X118997000Y-75700701D01*
X118999901Y-75737567D01*
X118999902Y-75737573D01*
X119045754Y-75895393D01*
X119045755Y-75895396D01*
X119045756Y-75895398D01*
X119076847Y-75947971D01*
X119129417Y-76036862D01*
X119134202Y-76043031D01*
X119131756Y-76044927D01*
X119158357Y-76093642D01*
X119153373Y-76163334D01*
X119132569Y-76195703D01*
X119134202Y-76196969D01*
X119129417Y-76203137D01*
X119045755Y-76344603D01*
X119045754Y-76344606D01*
X118999902Y-76502426D01*
X118999901Y-76502432D01*
X118997000Y-76539298D01*
X118997000Y-76970701D01*
X118999901Y-77007567D01*
X118999902Y-77007573D01*
X119045754Y-77165393D01*
X119045755Y-77165396D01*
X119129417Y-77306862D01*
X119134202Y-77313031D01*
X119131756Y-77314927D01*
X119158357Y-77363642D01*
X119153373Y-77433334D01*
X119132569Y-77465703D01*
X119134202Y-77466969D01*
X119129417Y-77473137D01*
X119045755Y-77614603D01*
X119045754Y-77614606D01*
X118999902Y-77772426D01*
X118999901Y-77772432D01*
X118997000Y-77809298D01*
X118997000Y-78240701D01*
X118999901Y-78277567D01*
X118999902Y-78277573D01*
X119045754Y-78435393D01*
X119045755Y-78435396D01*
X119129417Y-78576862D01*
X119129423Y-78576870D01*
X119245629Y-78693076D01*
X119245633Y-78693079D01*
X119245635Y-78693081D01*
X119387102Y-78776744D01*
X119428724Y-78788836D01*
X119544926Y-78822597D01*
X119544929Y-78822597D01*
X119544931Y-78822598D01*
X119581806Y-78825500D01*
X119581814Y-78825500D01*
X121363186Y-78825500D01*
X121363194Y-78825500D01*
X121400069Y-78822598D01*
X121400071Y-78822597D01*
X121400073Y-78822597D01*
X121441691Y-78810505D01*
X121557898Y-78776744D01*
X121699365Y-78693081D01*
X121815581Y-78576865D01*
X121899244Y-78435398D01*
X121945098Y-78277569D01*
X121948000Y-78240694D01*
X121948000Y-77809306D01*
X121945098Y-77772431D01*
X121944384Y-77769975D01*
X121899245Y-77614606D01*
X121899244Y-77614603D01*
X121899244Y-77614602D01*
X121815581Y-77473135D01*
X121815578Y-77473132D01*
X121810798Y-77466969D01*
X121813250Y-77465066D01*
X121786655Y-77416421D01*
X121791604Y-77346726D01*
X121812440Y-77314304D01*
X121810798Y-77313031D01*
X121815575Y-77306870D01*
X121815581Y-77306865D01*
X121899244Y-77165398D01*
X121945098Y-77007569D01*
X121948000Y-76970694D01*
X121948000Y-76539306D01*
X121945098Y-76502431D01*
X121934399Y-76465606D01*
X121899245Y-76344606D01*
X121899244Y-76344603D01*
X121899244Y-76344602D01*
X121815581Y-76203135D01*
X121815578Y-76203132D01*
X121810798Y-76196969D01*
X121813250Y-76195066D01*
X121786655Y-76146421D01*
X121791604Y-76076726D01*
X121812440Y-76044304D01*
X121810798Y-76043031D01*
X121815575Y-76036870D01*
X121815581Y-76036865D01*
X121899244Y-75895398D01*
X121934590Y-75773739D01*
X121945097Y-75737573D01*
X121945098Y-75737567D01*
X121945673Y-75730261D01*
X121948000Y-75700694D01*
X121948000Y-75269306D01*
X121945098Y-75232431D01*
X121944910Y-75231785D01*
X121906766Y-75100493D01*
X121899244Y-75074602D01*
X121815581Y-74933135D01*
X121815578Y-74933132D01*
X121810798Y-74926969D01*
X121813250Y-74925066D01*
X121786655Y-74876421D01*
X121791604Y-74806726D01*
X121812440Y-74774304D01*
X121810798Y-74773031D01*
X121815575Y-74766870D01*
X121815581Y-74766865D01*
X121899244Y-74625398D01*
X121945098Y-74467569D01*
X121948000Y-74430694D01*
X121948000Y-73999306D01*
X121945098Y-73962431D01*
X121899244Y-73804602D01*
X121815581Y-73663135D01*
X121815578Y-73663132D01*
X121810798Y-73656969D01*
X121813250Y-73655066D01*
X121786655Y-73606421D01*
X121791604Y-73536726D01*
X121812440Y-73504304D01*
X121810798Y-73503031D01*
X121815575Y-73496870D01*
X121815581Y-73496865D01*
X121899244Y-73355398D01*
X121945098Y-73197569D01*
X121948000Y-73160694D01*
X121948000Y-72729306D01*
X121945098Y-72692431D01*
X121942590Y-72683799D01*
X121899245Y-72534606D01*
X121899244Y-72534603D01*
X121899244Y-72534602D01*
X121815581Y-72393135D01*
X121815578Y-72393132D01*
X121810798Y-72386969D01*
X121813250Y-72385066D01*
X121786655Y-72336421D01*
X121791604Y-72266726D01*
X121812440Y-72234304D01*
X121810798Y-72233031D01*
X121815575Y-72226870D01*
X121815581Y-72226865D01*
X121899244Y-72085398D01*
X121945098Y-71927569D01*
X121948000Y-71890694D01*
X121948000Y-71459306D01*
X121945098Y-71422431D01*
X121929492Y-71368717D01*
X121899245Y-71264606D01*
X121899244Y-71264602D01*
X121879839Y-71231790D01*
X121815581Y-71123135D01*
X121815578Y-71123132D01*
X121810798Y-71116969D01*
X121813250Y-71115066D01*
X121786655Y-71066421D01*
X121791604Y-70996726D01*
X121812440Y-70964304D01*
X121810798Y-70963031D01*
X121815575Y-70956870D01*
X121815581Y-70956865D01*
X121899244Y-70815398D01*
X121945098Y-70657569D01*
X121948000Y-70620694D01*
X121948000Y-70189306D01*
X121945098Y-70152431D01*
X121941703Y-70140747D01*
X121899245Y-69994606D01*
X121899244Y-69994603D01*
X121899244Y-69994602D01*
X121815581Y-69853135D01*
X121815578Y-69853132D01*
X121810798Y-69846969D01*
X121813250Y-69845066D01*
X121786655Y-69796421D01*
X121791604Y-69726726D01*
X121812440Y-69694304D01*
X121810798Y-69693031D01*
X121815575Y-69686870D01*
X121815581Y-69686865D01*
X121899244Y-69545398D01*
X121945098Y-69387569D01*
X121948000Y-69350694D01*
X121948000Y-68919306D01*
X121945098Y-68882431D01*
X121922809Y-68805714D01*
X121906289Y-68748852D01*
X121899244Y-68724602D01*
X121815581Y-68583135D01*
X121815580Y-68583134D01*
X121815576Y-68583129D01*
X121699370Y-68466923D01*
X121699362Y-68466917D01*
X121621181Y-68420681D01*
X121557898Y-68383256D01*
X121557897Y-68383255D01*
X121557896Y-68383255D01*
X121557893Y-68383254D01*
X121400073Y-68337402D01*
X121400067Y-68337401D01*
X121363201Y-68334500D01*
X121363194Y-68334500D01*
X119581806Y-68334500D01*
X119581798Y-68334500D01*
X119544932Y-68337401D01*
X119544926Y-68337402D01*
X119387106Y-68383254D01*
X119387103Y-68383255D01*
X119245637Y-68466917D01*
X119245629Y-68466923D01*
X119214374Y-68498180D01*
X119153052Y-68531666D01*
X119126692Y-68534500D01*
X117951669Y-68534500D01*
X117951653Y-68534499D01*
X117944057Y-68534499D01*
X117785943Y-68534499D01*
X117671397Y-68565192D01*
X117633214Y-68575423D01*
X117622682Y-68581504D01*
X117619869Y-68583129D01*
X117619860Y-68583134D01*
X117619857Y-68583135D01*
X117496290Y-68654475D01*
X117496282Y-68654481D01*
X117384478Y-68766286D01*
X117204045Y-68946718D01*
X117142722Y-68980203D01*
X117073030Y-68975219D01*
X117017097Y-68933347D01*
X116997425Y-68888285D01*
X116996368Y-68888593D01*
X116948783Y-68724806D01*
X116948782Y-68724803D01*
X116865185Y-68583447D01*
X116865178Y-68583438D01*
X116749061Y-68467321D01*
X116749052Y-68467314D01*
X116607696Y-68383717D01*
X116607693Y-68383716D01*
X116449995Y-68337900D01*
X116449989Y-68337899D01*
X116413149Y-68335000D01*
X115772500Y-68335000D01*
X115772500Y-69011000D01*
X115752815Y-69078039D01*
X115700011Y-69123794D01*
X115648500Y-69135000D01*
X115522500Y-69135000D01*
X115522500Y-69261000D01*
X115502815Y-69328039D01*
X115450011Y-69373794D01*
X115398500Y-69385000D01*
X114050205Y-69385000D01*
X114050204Y-69385001D01*
X114050399Y-69387486D01*
X114096218Y-69545198D01*
X114138906Y-69617379D01*
X114156089Y-69685103D01*
X114133929Y-69751365D01*
X114079463Y-69795129D01*
X114032174Y-69804500D01*
X113724500Y-69804500D01*
X113657461Y-69784815D01*
X113611706Y-69732011D01*
X113600500Y-69680500D01*
X113600500Y-68884998D01*
X114050204Y-68884998D01*
X114050205Y-68885000D01*
X115272500Y-68885000D01*
X115272500Y-68335000D01*
X114631850Y-68335000D01*
X114595010Y-68337899D01*
X114595004Y-68337900D01*
X114437306Y-68383716D01*
X114437303Y-68383717D01*
X114295947Y-68467314D01*
X114295938Y-68467321D01*
X114179821Y-68583438D01*
X114179814Y-68583447D01*
X114096218Y-68724801D01*
X114050399Y-68882513D01*
X114050204Y-68884998D01*
X113600500Y-68884998D01*
X113600500Y-67800098D01*
X113620185Y-67733059D01*
X113636819Y-67712416D01*
X113712418Y-67636818D01*
X113773742Y-67603334D01*
X113800099Y-67600500D01*
X125045893Y-67600500D01*
X125112932Y-67620185D01*
X125133574Y-67636819D01*
X125363181Y-67866426D01*
X125396666Y-67927749D01*
X125399500Y-67954107D01*
X125399500Y-74420943D01*
X125399500Y-74579057D01*
X125411917Y-74625396D01*
X125440423Y-74731783D01*
X125440426Y-74731790D01*
X125519475Y-74868709D01*
X125519479Y-74868714D01*
X125519480Y-74868716D01*
X125631284Y-74980520D01*
X125631286Y-74980521D01*
X125631290Y-74980524D01*
X125735438Y-75040653D01*
X125768216Y-75059577D01*
X125920943Y-75100500D01*
X126556346Y-75100500D01*
X126576762Y-75106494D01*
X126598007Y-75107708D01*
X126619489Y-75119041D01*
X126623385Y-75120185D01*
X126629223Y-75124176D01*
X126636793Y-75129675D01*
X126679464Y-75185002D01*
X126685448Y-75254614D01*
X126652847Y-75316412D01*
X126636802Y-75330317D01*
X126460435Y-75458456D01*
X126308457Y-75610434D01*
X126308457Y-75610435D01*
X126308455Y-75610437D01*
X126259012Y-75678490D01*
X126182120Y-75784321D01*
X126084541Y-75975829D01*
X126084540Y-75975832D01*
X126018124Y-76180240D01*
X126018124Y-76180243D01*
X126003915Y-76269954D01*
X125985490Y-76386286D01*
X125984500Y-76392534D01*
X125984500Y-76607465D01*
X126018124Y-76819756D01*
X126018124Y-76819759D01*
X126084540Y-77024167D01*
X126084541Y-77024170D01*
X126156500Y-77165396D01*
X126182120Y-77215678D01*
X126308455Y-77389563D01*
X126460437Y-77541545D01*
X126486806Y-77560703D01*
X126637226Y-77669990D01*
X126679892Y-77725320D01*
X126685871Y-77794933D01*
X126653265Y-77856728D01*
X126637227Y-77870626D01*
X126460760Y-77998838D01*
X126460759Y-77998838D01*
X126308838Y-78150759D01*
X126182547Y-78324583D01*
X126085003Y-78516024D01*
X126018610Y-78720364D01*
X126007581Y-78790000D01*
X127055440Y-78790000D01*
X127024755Y-78843147D01*
X126990000Y-78972857D01*
X126990000Y-79107143D01*
X127024755Y-79236853D01*
X127055440Y-79290000D01*
X126007581Y-79290000D01*
X126018610Y-79359635D01*
X126085003Y-79563975D01*
X126182547Y-79755416D01*
X126308838Y-79929240D01*
X126460759Y-80081161D01*
X126634583Y-80207452D01*
X126826024Y-80304996D01*
X127030358Y-80371388D01*
X127242573Y-80405000D01*
X127250000Y-80405000D01*
X127250000Y-79484560D01*
X127303147Y-79515245D01*
X127432857Y-79550000D01*
X127567143Y-79550000D01*
X127696853Y-79515245D01*
X127750000Y-79484560D01*
X127750000Y-80405000D01*
X127757427Y-80405000D01*
X127969639Y-80371388D01*
X127969642Y-80371388D01*
X128173975Y-80304996D01*
X128365416Y-80207452D01*
X128539240Y-80081161D01*
X128691161Y-79929240D01*
X128817452Y-79755416D01*
X128914996Y-79563975D01*
X128981389Y-79359635D01*
X128992419Y-79290000D01*
X127944560Y-79290000D01*
X127975245Y-79236853D01*
X128010000Y-79107143D01*
X128010000Y-78972857D01*
X127975245Y-78843147D01*
X127944560Y-78790000D01*
X128992419Y-78790000D01*
X128981389Y-78720364D01*
X128914996Y-78516024D01*
X128817452Y-78324583D01*
X128691161Y-78150759D01*
X128539240Y-77998838D01*
X128362772Y-77870626D01*
X128320107Y-77815296D01*
X128314128Y-77745682D01*
X128346734Y-77683888D01*
X128362773Y-77669990D01*
X128365675Y-77667881D01*
X128365678Y-77667880D01*
X128539563Y-77541545D01*
X128691545Y-77389563D01*
X128817880Y-77215678D01*
X128884094Y-77085724D01*
X128932068Y-77034929D01*
X128999889Y-77018134D01*
X129066024Y-77040671D01*
X129082260Y-77054339D01*
X129149707Y-77121786D01*
X129149711Y-77121789D01*
X129280814Y-77209390D01*
X129280827Y-77209397D01*
X129388138Y-77253846D01*
X129426503Y-77269737D01*
X129559400Y-77296172D01*
X129581153Y-77300499D01*
X129581156Y-77300500D01*
X129581158Y-77300500D01*
X129738844Y-77300500D01*
X129738845Y-77300499D01*
X129893497Y-77269737D01*
X130039179Y-77209394D01*
X130170289Y-77121789D01*
X130281789Y-77010289D01*
X130369394Y-76879179D01*
X130429737Y-76733497D01*
X130460500Y-76578842D01*
X130460500Y-76421158D01*
X130460500Y-76421155D01*
X130460499Y-76421153D01*
X130450374Y-76370254D01*
X130429737Y-76266503D01*
X130429735Y-76266497D01*
X130369397Y-76120827D01*
X130369390Y-76120814D01*
X130281789Y-75989711D01*
X130281786Y-75989707D01*
X130170292Y-75878213D01*
X130170288Y-75878210D01*
X130039185Y-75790609D01*
X130039172Y-75790602D01*
X129893501Y-75730264D01*
X129893489Y-75730261D01*
X129738845Y-75699500D01*
X129738842Y-75699500D01*
X129581158Y-75699500D01*
X129581153Y-75699500D01*
X129443528Y-75726875D01*
X129409795Y-75723856D01*
X129376003Y-75721440D01*
X129375082Y-75720750D01*
X129373936Y-75720648D01*
X129347183Y-75699865D01*
X129320070Y-75679568D01*
X129319667Y-75678490D01*
X129318759Y-75677784D01*
X129307488Y-75645837D01*
X129295653Y-75614104D01*
X129295897Y-75612979D01*
X129295515Y-75611895D01*
X129303303Y-75578934D01*
X129310505Y-75545831D01*
X129311412Y-75544618D01*
X129311583Y-75543898D01*
X129331652Y-75517581D01*
X129358506Y-75490728D01*
X129358511Y-75490724D01*
X129368714Y-75480520D01*
X129368716Y-75480520D01*
X129480520Y-75368716D01*
X129559577Y-75231784D01*
X129594754Y-75100501D01*
X129600500Y-75079058D01*
X129600500Y-74920943D01*
X129600500Y-68015178D01*
X129620185Y-67948139D01*
X129672989Y-67902384D01*
X129710614Y-67891958D01*
X129810395Y-67880716D01*
X129902718Y-67870314D01*
X129902721Y-67870313D01*
X129902732Y-67870312D01*
X130165591Y-67810316D01*
X130420079Y-67721267D01*
X130662997Y-67604284D01*
X130891289Y-67460838D01*
X131102085Y-67292734D01*
X131287819Y-67107000D01*
X131349142Y-67073515D01*
X131418834Y-67078499D01*
X131474767Y-67120371D01*
X131499184Y-67185835D01*
X131499500Y-67194681D01*
X131499500Y-82305319D01*
X131479815Y-82372358D01*
X131427011Y-82418113D01*
X131357853Y-82428057D01*
X131294297Y-82399032D01*
X131287819Y-82393000D01*
X131102084Y-82207265D01*
X130994410Y-82121398D01*
X130891289Y-82039162D01*
X130709602Y-81925000D01*
X130662994Y-81895714D01*
X130420082Y-81778734D01*
X130165602Y-81689687D01*
X130165594Y-81689684D01*
X129968446Y-81644687D01*
X129902732Y-81629688D01*
X129902728Y-81629687D01*
X129902719Y-81629686D01*
X129634813Y-81599500D01*
X129634809Y-81599500D01*
X129365191Y-81599500D01*
X129365186Y-81599500D01*
X129097280Y-81629686D01*
X129097268Y-81629688D01*
X128834405Y-81689684D01*
X128834397Y-81689687D01*
X128579917Y-81778734D01*
X128337005Y-81895714D01*
X128108712Y-82039161D01*
X127897915Y-82207265D01*
X127707265Y-82397915D01*
X127539161Y-82608712D01*
X127395714Y-82837005D01*
X127278734Y-83079917D01*
X127189687Y-83334397D01*
X127189684Y-83334405D01*
X127129688Y-83597268D01*
X127129686Y-83597280D01*
X127099500Y-83865186D01*
X127099500Y-84134813D01*
X127129686Y-84402719D01*
X127129687Y-84402728D01*
X127129688Y-84402732D01*
X127139886Y-84447413D01*
X127189684Y-84665594D01*
X127189687Y-84665602D01*
X127278734Y-84920082D01*
X127395714Y-85162994D01*
X127395716Y-85162997D01*
X127539162Y-85391289D01*
X127653801Y-85535042D01*
X127707265Y-85602084D01*
X127893000Y-85787819D01*
X127926485Y-85849142D01*
X127921501Y-85918834D01*
X127879629Y-85974767D01*
X127814165Y-85999184D01*
X127805319Y-85999500D01*
X98694681Y-85999500D01*
X98627642Y-85979815D01*
X98581887Y-85927011D01*
X98571943Y-85857853D01*
X98600968Y-85794297D01*
X98607000Y-85787819D01*
X98792734Y-85602085D01*
X98960838Y-85391289D01*
X99104284Y-85162997D01*
X99221267Y-84920079D01*
X99310316Y-84665591D01*
X99313875Y-84650000D01*
X104115487Y-84650000D01*
X104734449Y-84650000D01*
X104746489Y-84639567D01*
X104759817Y-84637650D01*
X104771639Y-84631195D01*
X104793729Y-84632774D01*
X104815647Y-84629623D01*
X104827897Y-84635217D01*
X104841331Y-84636178D01*
X104859059Y-84649448D01*
X104879203Y-84658648D01*
X104886484Y-84669977D01*
X104897265Y-84678048D01*
X104905004Y-84698795D01*
X104916977Y-84717426D01*
X104920127Y-84739340D01*
X104921684Y-84743512D01*
X104922000Y-84752361D01*
X104922000Y-84947638D01*
X104902315Y-85014677D01*
X104849511Y-85060432D01*
X104780353Y-85070376D01*
X104735736Y-85050000D01*
X104115490Y-85050000D01*
X104115488Y-85050001D01*
X104122942Y-85106627D01*
X104122944Y-85106633D01*
X104183399Y-85252585D01*
X104279575Y-85377924D01*
X104404913Y-85474100D01*
X104550865Y-85534554D01*
X104550869Y-85534555D01*
X104668176Y-85549999D01*
X104724999Y-85549998D01*
X104725000Y-85549998D01*
X104725000Y-85217237D01*
X104744685Y-85150198D01*
X104797489Y-85104443D01*
X104866647Y-85094499D01*
X104930203Y-85123524D01*
X104963561Y-85169785D01*
X104997963Y-85252840D01*
X105099166Y-85384731D01*
X105096353Y-85386888D01*
X105122103Y-85433779D01*
X105125000Y-85460426D01*
X105125000Y-85549999D01*
X105181823Y-85549999D01*
X105299129Y-85534556D01*
X105299428Y-85534476D01*
X105299737Y-85534476D01*
X105307189Y-85533495D01*
X105307318Y-85534476D01*
X105357615Y-85534476D01*
X105357680Y-85533983D01*
X105361425Y-85534476D01*
X105363621Y-85534476D01*
X105365730Y-85535040D01*
X105365738Y-85535044D01*
X105483139Y-85550500D01*
X105996860Y-85550499D01*
X105996863Y-85550499D01*
X106114253Y-85535046D01*
X106114257Y-85535044D01*
X106114262Y-85535044D01*
X106260341Y-85474536D01*
X106260345Y-85474532D01*
X106267376Y-85470474D01*
X106268382Y-85472216D01*
X106323432Y-85450931D01*
X106333757Y-85450500D01*
X107063331Y-85450500D01*
X107063347Y-85450501D01*
X107070943Y-85450501D01*
X107229054Y-85450501D01*
X107229057Y-85450501D01*
X107381785Y-85409577D01*
X107452291Y-85368870D01*
X107518716Y-85330520D01*
X107630520Y-85218716D01*
X107630521Y-85218714D01*
X107980520Y-84868716D01*
X108059577Y-84731784D01*
X108100501Y-84579057D01*
X108100501Y-84420942D01*
X108100501Y-84413347D01*
X108100500Y-84413329D01*
X108100500Y-84322596D01*
X108120185Y-84255557D01*
X108151614Y-84222278D01*
X108155403Y-84219524D01*
X108155405Y-84219524D01*
X108314646Y-84103828D01*
X108453828Y-83964646D01*
X108569524Y-83805405D01*
X108658884Y-83630025D01*
X108719709Y-83442826D01*
X108750500Y-83248422D01*
X108750500Y-83051577D01*
X108719709Y-82857173D01*
X108658882Y-82669970D01*
X108569523Y-82494594D01*
X108453828Y-82335354D01*
X108430655Y-82312181D01*
X108397170Y-82250858D01*
X108402154Y-82181166D01*
X108444026Y-82125233D01*
X108509490Y-82100816D01*
X108518336Y-82100500D01*
X111420234Y-82100500D01*
X111487273Y-82120185D01*
X111489125Y-82121398D01*
X111620814Y-82209390D01*
X111620827Y-82209397D01*
X111766498Y-82269735D01*
X111766503Y-82269737D01*
X111921153Y-82300499D01*
X111921156Y-82300500D01*
X111921158Y-82300500D01*
X112078844Y-82300500D01*
X112078845Y-82300499D01*
X112233497Y-82269737D01*
X112379179Y-82209394D01*
X112510289Y-82121789D01*
X112621789Y-82010289D01*
X112709394Y-81879179D01*
X112769737Y-81733497D01*
X112800500Y-81578842D01*
X112800500Y-81421158D01*
X112800500Y-81421155D01*
X112800499Y-81421153D01*
X112791862Y-81377733D01*
X112769737Y-81266503D01*
X112769735Y-81266498D01*
X112709397Y-81120827D01*
X112709390Y-81120814D01*
X112621789Y-80989711D01*
X112621786Y-80989707D01*
X112510292Y-80878213D01*
X112510288Y-80878210D01*
X112379185Y-80790609D01*
X112379172Y-80790602D01*
X112233501Y-80730264D01*
X112233489Y-80730261D01*
X112078845Y-80699500D01*
X112078842Y-80699500D01*
X111921158Y-80699500D01*
X111921155Y-80699500D01*
X111766510Y-80730261D01*
X111766498Y-80730264D01*
X111620827Y-80790602D01*
X111620814Y-80790609D01*
X111489125Y-80878602D01*
X111422447Y-80899480D01*
X111420234Y-80899500D01*
X107420943Y-80899500D01*
X107268216Y-80940423D01*
X107268209Y-80940426D01*
X107131290Y-81019475D01*
X107131282Y-81019481D01*
X107019481Y-81131282D01*
X107019475Y-81131290D01*
X106940426Y-81268209D01*
X106940423Y-81268216D01*
X106899500Y-81420943D01*
X106899500Y-81977403D01*
X106879815Y-82044442D01*
X106848386Y-82077721D01*
X106685352Y-82196173D01*
X106546174Y-82335351D01*
X106546174Y-82335352D01*
X106546172Y-82335354D01*
X106500719Y-82397915D01*
X106430476Y-82494594D01*
X106341117Y-82669970D01*
X106280290Y-82857173D01*
X106249500Y-83051577D01*
X106249500Y-83248422D01*
X106280290Y-83442826D01*
X106341117Y-83630029D01*
X106430476Y-83805405D01*
X106546172Y-83964646D01*
X106546174Y-83964648D01*
X106619345Y-84037819D01*
X106629957Y-84057255D01*
X106644458Y-84073989D01*
X106646374Y-84087320D01*
X106652830Y-84099142D01*
X106651250Y-84121228D01*
X106654402Y-84143147D01*
X106648806Y-84155398D01*
X106647846Y-84168834D01*
X106634575Y-84186560D01*
X106625377Y-84206703D01*
X106614045Y-84213985D01*
X106605974Y-84224767D01*
X106585228Y-84232504D01*
X106566599Y-84244477D01*
X106544680Y-84247628D01*
X106540510Y-84249184D01*
X106531664Y-84249500D01*
X106333757Y-84249500D01*
X106266718Y-84229815D01*
X106261400Y-84226075D01*
X106260336Y-84225461D01*
X106114265Y-84164957D01*
X106114260Y-84164955D01*
X105996861Y-84149500D01*
X105483137Y-84149500D01*
X105365736Y-84164955D01*
X105363611Y-84165525D01*
X105361410Y-84165525D01*
X105357681Y-84166016D01*
X105357616Y-84165525D01*
X105307316Y-84165525D01*
X105307188Y-84166505D01*
X105299751Y-84165525D01*
X105299437Y-84165526D01*
X105299132Y-84165444D01*
X105181830Y-84150000D01*
X105125000Y-84150000D01*
X105125000Y-84239573D01*
X105105315Y-84306612D01*
X105098664Y-84314885D01*
X105099166Y-84315271D01*
X105094220Y-84321716D01*
X105094218Y-84321718D01*
X105032064Y-84402719D01*
X104997963Y-84447160D01*
X104963561Y-84530215D01*
X104919720Y-84584618D01*
X104853426Y-84606683D01*
X104785726Y-84589404D01*
X104738116Y-84538266D01*
X104725000Y-84482762D01*
X104725000Y-84150000D01*
X104724999Y-84149999D01*
X104668176Y-84150000D01*
X104550871Y-84165442D01*
X104550866Y-84165444D01*
X104404914Y-84225899D01*
X104279575Y-84322075D01*
X104183399Y-84447413D01*
X104122944Y-84593368D01*
X104115487Y-84650000D01*
X99313875Y-84650000D01*
X99370312Y-84402732D01*
X99400500Y-84134809D01*
X99400500Y-83865191D01*
X99370312Y-83597268D01*
X99310316Y-83334409D01*
X99221267Y-83079921D01*
X99104284Y-82837003D01*
X98960838Y-82608711D01*
X98792734Y-82397915D01*
X98602085Y-82207266D01*
X98602084Y-82207265D01*
X98602078Y-82207259D01*
X98525194Y-82145947D01*
X98485053Y-82088759D01*
X98482203Y-82018948D01*
X98517548Y-81958677D01*
X98579867Y-81927084D01*
X98602506Y-81925000D01*
X99440506Y-81925000D01*
X99619293Y-81896682D01*
X99791444Y-81840748D01*
X99791447Y-81840747D01*
X99952734Y-81758565D01*
X100099169Y-81652176D01*
X100227176Y-81524169D01*
X100333565Y-81377734D01*
X100415747Y-81216447D01*
X100415749Y-81216441D01*
X100471681Y-81044295D01*
X100471684Y-81044285D01*
X100474739Y-81025000D01*
X99544975Y-81025000D01*
X99580070Y-80989905D01*
X99626148Y-80910095D01*
X99650000Y-80821078D01*
X99650000Y-80728922D01*
X99626148Y-80639905D01*
X99580070Y-80560095D01*
X99544975Y-80525000D01*
X100474739Y-80525000D01*
X100471684Y-80505714D01*
X100471681Y-80505704D01*
X100415749Y-80333558D01*
X100415747Y-80333552D01*
X100333565Y-80172265D01*
X100227176Y-80025830D01*
X100099169Y-79897823D01*
X99952734Y-79791434D01*
X99791447Y-79709252D01*
X99791444Y-79709251D01*
X99619293Y-79653317D01*
X99440506Y-79625000D01*
X98650000Y-79625000D01*
X98650000Y-80425000D01*
X98150000Y-80425000D01*
X98150000Y-79625000D01*
X97359494Y-79625000D01*
X97180706Y-79653317D01*
X97008555Y-79709251D01*
X97008552Y-79709252D01*
X96847265Y-79791434D01*
X96700830Y-79897823D01*
X96572823Y-80025830D01*
X96466434Y-80172265D01*
X96384252Y-80333552D01*
X96384250Y-80333558D01*
X96328318Y-80505704D01*
X96328315Y-80505714D01*
X96325261Y-80525000D01*
X97255025Y-80525000D01*
X97219930Y-80560095D01*
X97173852Y-80639905D01*
X97150000Y-80728922D01*
X97150000Y-80821078D01*
X97173852Y-80910095D01*
X97219930Y-80989905D01*
X97255025Y-81025000D01*
X96325261Y-81025000D01*
X96328315Y-81044285D01*
X96328318Y-81044295D01*
X96384250Y-81216441D01*
X96384252Y-81216447D01*
X96466433Y-81377733D01*
X96531644Y-81467490D01*
X96555123Y-81533296D01*
X96539297Y-81601350D01*
X96489191Y-81650044D01*
X96458918Y-81661265D01*
X96334406Y-81689684D01*
X96334397Y-81689687D01*
X96079917Y-81778734D01*
X95837005Y-81895714D01*
X95608712Y-82039161D01*
X95397915Y-82207265D01*
X95212181Y-82393000D01*
X95150858Y-82426485D01*
X95081166Y-82421501D01*
X95025233Y-82379629D01*
X95000816Y-82314165D01*
X95000500Y-82305319D01*
X95000500Y-77096153D01*
X97599500Y-77096153D01*
X97599500Y-77253846D01*
X97630261Y-77408489D01*
X97630264Y-77408501D01*
X97690602Y-77554172D01*
X97690609Y-77554185D01*
X97778210Y-77685288D01*
X97778213Y-77685292D01*
X97889707Y-77796786D01*
X97889711Y-77796789D01*
X98020814Y-77884390D01*
X98020827Y-77884397D01*
X98166498Y-77944735D01*
X98166503Y-77944737D01*
X98321153Y-77975499D01*
X98321156Y-77975500D01*
X98321158Y-77975500D01*
X98478844Y-77975500D01*
X98478845Y-77975499D01*
X98633497Y-77944737D01*
X98779179Y-77884394D01*
X98910289Y-77796789D01*
X99021789Y-77685289D01*
X99109394Y-77554179D01*
X99169737Y-77408497D01*
X99200500Y-77253842D01*
X99200500Y-77096158D01*
X99200500Y-77096155D01*
X99200499Y-77096153D01*
X99186445Y-77025499D01*
X99169737Y-76941503D01*
X99155239Y-76906502D01*
X99109397Y-76795827D01*
X99109390Y-76795814D01*
X99021789Y-76664711D01*
X99021786Y-76664707D01*
X98910292Y-76553213D01*
X98910288Y-76553210D01*
X98779185Y-76465609D01*
X98779172Y-76465602D01*
X98633501Y-76405264D01*
X98633489Y-76405261D01*
X98478845Y-76374500D01*
X98478842Y-76374500D01*
X98321158Y-76374500D01*
X98321155Y-76374500D01*
X98166510Y-76405261D01*
X98166498Y-76405264D01*
X98020827Y-76465602D01*
X98020814Y-76465609D01*
X97889711Y-76553210D01*
X97889707Y-76553213D01*
X97778213Y-76664707D01*
X97778210Y-76664711D01*
X97690609Y-76795814D01*
X97690602Y-76795827D01*
X97630264Y-76941498D01*
X97630261Y-76941510D01*
X97599500Y-77096153D01*
X95000500Y-77096153D01*
X95000500Y-71080069D01*
X99500000Y-71080069D01*
X99500000Y-71175000D01*
X100750000Y-71175000D01*
X101250000Y-71175000D01*
X102500000Y-71175000D01*
X102500000Y-71080070D01*
X102499999Y-71080069D01*
X102484877Y-70945858D01*
X102425336Y-70775698D01*
X102329422Y-70623051D01*
X102201948Y-70495577D01*
X102049301Y-70399663D01*
X101879141Y-70340122D01*
X101744930Y-70325000D01*
X101250000Y-70325000D01*
X101250000Y-71175000D01*
X100750000Y-71175000D01*
X100750000Y-70325000D01*
X100255070Y-70325000D01*
X100120858Y-70340122D01*
X99950698Y-70399663D01*
X99798051Y-70495577D01*
X99670577Y-70623051D01*
X99574663Y-70775698D01*
X99515122Y-70945858D01*
X99500000Y-71080069D01*
X95000500Y-71080069D01*
X95000500Y-67194681D01*
X95020185Y-67127642D01*
X95072989Y-67081887D01*
X95142147Y-67071943D01*
X95205703Y-67100968D01*
X95212181Y-67107000D01*
X95397915Y-67292734D01*
X95608711Y-67460838D01*
X95837003Y-67604284D01*
X96079921Y-67721267D01*
X96257353Y-67783353D01*
X96334397Y-67810312D01*
X96334405Y-67810315D01*
X96334408Y-67810315D01*
X96334409Y-67810316D01*
X96597268Y-67870312D01*
X96597276Y-67870312D01*
X96597281Y-67870314D01*
X96689605Y-67880716D01*
X96759741Y-67888618D01*
X96824154Y-67915684D01*
X96863709Y-67973279D01*
X96865847Y-68043116D01*
X96829889Y-68103022D01*
X96818743Y-68112156D01*
X96700826Y-68197827D01*
X96572823Y-68325830D01*
X96466434Y-68472265D01*
X96384252Y-68633552D01*
X96384250Y-68633558D01*
X96328318Y-68805704D01*
X96328315Y-68805714D01*
X96325261Y-68825000D01*
X97255025Y-68825000D01*
X97219930Y-68860095D01*
X97173852Y-68939905D01*
X97150000Y-69028922D01*
X97150000Y-69121078D01*
X97173852Y-69210095D01*
X97219930Y-69289905D01*
X97255025Y-69325000D01*
X96325261Y-69325000D01*
X96328315Y-69344285D01*
X96328318Y-69344295D01*
X96384250Y-69516441D01*
X96384252Y-69516447D01*
X96466434Y-69677734D01*
X96572823Y-69824169D01*
X96700830Y-69952176D01*
X96847265Y-70058565D01*
X97008552Y-70140747D01*
X97008555Y-70140748D01*
X97180706Y-70196682D01*
X97359494Y-70225000D01*
X98150000Y-70225000D01*
X98150000Y-69425000D01*
X98650000Y-69425000D01*
X98650000Y-70225000D01*
X99440506Y-70225000D01*
X99619293Y-70196682D01*
X99791444Y-70140748D01*
X99791447Y-70140747D01*
X99952734Y-70058565D01*
X100099169Y-69952176D01*
X100227176Y-69824169D01*
X100333565Y-69677734D01*
X100415747Y-69516447D01*
X100415749Y-69516441D01*
X100471681Y-69344295D01*
X100471684Y-69344285D01*
X100474739Y-69325000D01*
X99544975Y-69325000D01*
X99580070Y-69289905D01*
X99626148Y-69210095D01*
X99650000Y-69121078D01*
X99650000Y-69028922D01*
X99626148Y-68939905D01*
X99580070Y-68860095D01*
X99544975Y-68825000D01*
X100474739Y-68825000D01*
X100471684Y-68805714D01*
X100471681Y-68805704D01*
X100415749Y-68633558D01*
X100415747Y-68633552D01*
X100333565Y-68472265D01*
X100227176Y-68325830D01*
X100099169Y-68197823D01*
X99952734Y-68091434D01*
X99791447Y-68009252D01*
X99791444Y-68009251D01*
X99619293Y-67953317D01*
X99440506Y-67925000D01*
X98650000Y-67925000D01*
X98650000Y-68725000D01*
X98150000Y-68725000D01*
X98150000Y-67964947D01*
X98003498Y-67919412D01*
X97989449Y-67910067D01*
X97973264Y-67905315D01*
X97960964Y-67891120D01*
X97945322Y-67880716D01*
X97938555Y-67865259D01*
X97927509Y-67852511D01*
X97924835Y-67833920D01*
X97917302Y-67816711D01*
X97919965Y-67800050D01*
X97917565Y-67783353D01*
X97925368Y-67766266D01*
X97928334Y-67747718D01*
X97939581Y-67735143D01*
X97946590Y-67719797D01*
X97967844Y-67703545D01*
X97974915Y-67695641D01*
X97980034Y-67694224D01*
X97986502Y-67689280D01*
X98162991Y-67604287D01*
X98162991Y-67604286D01*
X98162997Y-67604284D01*
X98391289Y-67460838D01*
X98602085Y-67292734D01*
X98792734Y-67102085D01*
X98960838Y-66891289D01*
X99104284Y-66662997D01*
X99221267Y-66420079D01*
X99310316Y-66165591D01*
X99370312Y-65902732D01*
X99400500Y-65634809D01*
X99400500Y-65365191D01*
X99370312Y-65097268D01*
X99310316Y-64834409D01*
X99221267Y-64579921D01*
X99104284Y-64337003D01*
X98960838Y-64108711D01*
X98792734Y-63897915D01*
X98607000Y-63712181D01*
X98573515Y-63650858D01*
X98578499Y-63581166D01*
X98620371Y-63525233D01*
X98685835Y-63500816D01*
X98694681Y-63500500D01*
X127805319Y-63500500D01*
X127872358Y-63520185D01*
G37*
%TD.AperFunction*%
%TA.AperFunction,Conductor*%
G36*
X108671253Y-72020934D02*
G01*
X108709027Y-72079712D01*
X108714050Y-72114647D01*
X108714050Y-72119170D01*
X109334371Y-72683799D01*
X109370698Y-72743482D01*
X109368991Y-72813331D01*
X109329792Y-72871169D01*
X109265546Y-72898632D01*
X109250903Y-72899500D01*
X109039340Y-72899500D01*
X108998249Y-72891326D01*
X108998196Y-72891527D01*
X108995144Y-72890709D01*
X108991890Y-72890062D01*
X108990353Y-72889425D01*
X108990348Y-72889423D01*
X108990347Y-72889423D01*
X108869403Y-72857015D01*
X108809744Y-72820650D01*
X108779216Y-72757803D01*
X108777499Y-72737241D01*
X108777499Y-72730675D01*
X108762057Y-72613371D01*
X108762055Y-72613366D01*
X108701600Y-72467414D01*
X108605422Y-72342073D01*
X108514563Y-72272353D01*
X108473360Y-72215925D01*
X108466050Y-72173978D01*
X108466050Y-72114647D01*
X108485735Y-72047608D01*
X108538539Y-72001853D01*
X108607697Y-71991909D01*
X108671253Y-72020934D01*
G37*
%TD.AperFunction*%
M02*
