%TF.GenerationSoftware,KiCad,Pcbnew,9.0.3*%
%TF.CreationDate,2025-08-08T09:11:38+05:30*%
%TF.ProjectId,US-UART(Converter),55532d55-4152-4542-9843-6f6e76657274,rev?*%
%TF.SameCoordinates,Original*%
%TF.FileFunction,Profile,NP*%
%FSLAX46Y46*%
G04 Gerber Fmt 4.6, Leading zero omitted, Abs format (unit mm)*
G04 Created by KiCad (PCBNEW 9.0.3) date 2025-08-08 09:11:38*
%MOMM*%
%LPD*%
G01*
G04 APERTURE LIST*
%TA.AperFunction,Profile*%
%ADD10C,0.200000*%
%TD*%
%ADD11C,0.100000*%
G04 APERTURE END LIST*
D10*
X94500000Y-63000000D02*
X132000000Y-63000000D01*
X132000000Y-86500000D01*
X94500000Y-86500000D01*
X94500000Y-63000000D01*
D11*
X107529598Y-72284228D02*
X107510550Y-72312800D01*
X107510550Y-72312800D02*
X107453408Y-72341371D01*
X107453408Y-72341371D02*
X107415312Y-72341371D01*
X107415312Y-72341371D02*
X107358169Y-72312800D01*
X107358169Y-72312800D02*
X107320074Y-72255657D01*
X107320074Y-72255657D02*
X107301027Y-72198514D01*
X107301027Y-72198514D02*
X107281979Y-72084228D01*
X107281979Y-72084228D02*
X107281979Y-71998514D01*
X107281979Y-71998514D02*
X107301027Y-71884228D01*
X107301027Y-71884228D02*
X107320074Y-71827085D01*
X107320074Y-71827085D02*
X107358169Y-71769942D01*
X107358169Y-71769942D02*
X107415312Y-71741371D01*
X107415312Y-71741371D02*
X107453408Y-71741371D01*
X107453408Y-71741371D02*
X107510550Y-71769942D01*
X107510550Y-71769942D02*
X107529598Y-71798514D01*
X107910550Y-72341371D02*
X107681979Y-72341371D01*
X107796265Y-72341371D02*
X107796265Y-71741371D01*
X107796265Y-71741371D02*
X107758169Y-71827085D01*
X107758169Y-71827085D02*
X107720074Y-71884228D01*
X107720074Y-71884228D02*
X107681979Y-71912800D01*
M02*
